<?xml version="1.0" encoding="UTF-8"?><svg id="Layer_2" xmlns="http://www.w3.org/2000/svg" viewBox="0 0 830.84 315.97"><defs><style>.cls-1{fill:#fff;}.cls-2{fill:#2a3636;}.cls-3{fill:#09a59a;}.cls-4{fill:#313737;}</style></defs><g id="Layer_1-2"><g><g><line class="cls-1" x1="83.53" y1="161.29" x2="83.37" y2="173.77"/><rect class="cls-2" x="77.21" y="165.53" width="12.48" height="4" transform="translate(-85.12 248.86) rotate(-89.27)"/><g><path class="cls-3" d="M744.1,174.5H85.92V1.01H744.1c47.91,0,86.74,38.83,86.74,86.74s-38.84,86.74-86.74,86.74"/><path class="cls-1" d="M175.5,88.86c-.61,48.46-40.4,87.25-88.86,86.64C38.18,174.89-.61,135.11,0,86.65,.62,38.18,40.4-.61,88.86,0c48.46,.61,87.25,40.4,86.64,88.86"/><path class="cls-2" d="M89.57,.02l-.04,2h0c22.76,.47,44.01,9.73,59.85,26.1,15.85,16.37,24.41,37.94,24.13,60.72-.6,47.28-39.55,85.26-86.83,84.66-.23,0-.46,0-.68-.01-22.76-.47-44.02-9.73-59.85-26.1C10.29,131.02,1.72,109.46,2.01,86.67,2.6,39.39,41.56,1.41,88.84,2.01c.23,0,.46,0,.68,.01l.05-2Zm0,0c-.23,0-.47,0-.7-.01C40.4-.6,.62,38.18,0,86.65c-.61,48.23,37.8,87.86,85.94,88.85,.23,0,.47,0,.7,.01,48.46,.61,88.24-38.18,88.86-86.64C176.11,40.63,137.7,1,89.56,.02"/><line class="cls-1" x1="86.08" y1="1.71" x2="85.92" y2="14.19"/><rect class="cls-2" x="79.76" y="5.95" width="12.48" height="4" transform="translate(76.96 93.85) rotate(-89.27)"/><line class="cls-1" x1="172.99" y1="88.86" x2="160.51" y2="88.7"/><rect class="cls-2" x="164.75" y="82.54" width="4" height="12.48" transform="translate(75.89 254.4) rotate(-89.28)"/><line class="cls-1" x1="13.41" y1="86.84" x2=".93" y2="86.68"/><rect class="cls-2" x="5.17" y="80.52" width="4" height="12.48" transform="translate(-79.68 92.82) rotate(-89.27)"/><line class="cls-1" x1="147.02" y1="149.37" x2="138.31" y2="140.43"/><rect class="cls-2" x="140.66" y="138.66" width="4" height="12.48" transform="translate(-60.64 140.75) rotate(-44.28)"/><line class="cls-1" x1="35.61" y1="35.1" x2="26.89" y2="26.17"/><rect class="cls-2" x="29.25" y="24.4" width="4" height="12.48" transform="translate(-12.51 30.52) rotate(-44.28)"/><line class="cls-1" x1="148.56" y1="27.71" x2="139.62" y2="36.42"/><rect class="cls-2" x="137.85" y="30.06" width="12.48" height="4" transform="translate(18.55 109.71) rotate(-44.28)"/><line class="cls-1" x1="34.29" y1="139.12" x2="25.35" y2="147.83"/><rect class="cls-2" x="23.58" y="141.48" width="12.48" height="4" transform="translate(-91.7 61.58) rotate(-44.28)"/><polygon class="cls-1" points="227.54 65.61 227.16 80.99 253.75 81.64 253.46 93.5 226.87 92.86 226.49 108.24 256.05 108.96 255.76 120.82 213.69 119.79 215.32 53.45 257.38 54.48 257.09 66.34 227.54 65.61"/><polygon class="cls-1" points="268.85 54.75 283.4 55.11 309 100.24 309.74 100.26 309.31 87.45 310.08 55.76 322.5 56.07 320.88 122.41 307.72 122.09 280.7 74.42 279.96 74.4 280.39 87.21 279.55 121.4 267.23 121.1 268.85 54.75"/><path class="cls-1" d="M365.71,87.07l32.52,.8c.17,.75,.3,1.65,.4,2.7,.1,1.05,.13,2.11,.11,3.15-.1,4.26-.85,8.26-2.24,12-1.39,3.74-3.51,7.05-6.36,9.95-3.04,3.08-6.65,5.43-10.83,7.06-4.18,1.63-8.93,2.38-14.24,2.25-4.82-.12-9.34-1.09-13.56-2.93-4.22-1.83-7.87-4.33-10.94-7.5-3.07-3.16-5.49-6.89-7.24-11.16-1.75-4.28-2.56-8.92-2.44-13.92,.12-5,1.16-9.6,3.12-13.78,1.96-4.18,4.55-7.78,7.77-10.8,3.23-3.01,6.99-5.33,11.3-6.96,4.3-1.62,8.87-2.38,13.68-2.26,5.37,.13,10.15,1.18,14.34,3.13,4.18,1.96,7.75,4.61,10.7,7.96l-8.82,8.22c-2.11-2.34-4.47-4.14-7.1-5.41-2.63-1.27-5.79-1.95-9.5-2.04-3.03-.07-5.91,.4-8.66,1.41-2.74,1.01-5.16,2.49-7.25,4.41-2.09,1.93-3.77,4.28-5.04,7.06-1.27,2.78-1.95,5.9-2.04,9.36-.09,3.46,.44,6.61,1.58,9.45,1.14,2.84,2.71,5.27,4.74,7.3,2.02,2.03,4.38,3.62,7.07,4.76,2.69,1.15,5.58,1.76,8.67,1.83,3.52,.09,6.51-.35,8.98-1.31,2.47-.96,4.58-2.22,6.35-3.78,1.26-1.08,2.36-2.46,3.3-4.14,.94-1.68,1.68-3.56,2.22-5.65l-20.85-.51,.26-10.66Z"/><polygon class="cls-1" points="410 58.2 422.51 58.51 421.18 112.99 449.25 113.68 448.96 125.54 408.38 124.55 410 58.2"/><rect class="cls-1" x="431.73" y="86.48" width="66.36" height="12.51" transform="translate(360.83 555.24) rotate(-88.6)"/><path class="cls-1" d="M503.97,128.37c-2.84-.07-5.55-.54-8.12-1.4-2.58-.86-4.93-2.13-7.05-3.79-2.12-1.66-3.96-3.67-5.51-6.02-1.55-2.35-2.75-5.09-3.6-8.2l11.88-4.35c.78,3.36,2.23,6.16,4.34,8.4,2.11,2.25,4.92,3.41,8.44,3.5,1.3,.03,2.55-.11,3.76-.42,1.21-.31,2.31-.78,3.28-1.4,.97-.62,1.75-1.42,2.33-2.4,.58-.97,.89-2.11,.92-3.41,.03-1.23-.16-2.35-.57-3.35-.41-1-1.11-1.94-2.11-2.83-1-.89-2.31-1.76-3.92-2.6-1.62-.84-3.62-1.73-6.01-2.65l-4.04-1.58c-1.78-.66-3.56-1.54-5.36-2.63-1.8-1.1-3.42-2.4-4.86-3.92-1.45-1.52-2.62-3.29-3.53-5.32-.91-2.03-1.33-4.31-1.27-6.85,.06-2.59,.63-5.01,1.71-7.24,1.07-2.23,2.57-4.17,4.5-5.82,1.93-1.65,4.21-2.92,6.86-3.82,2.65-.89,5.58-1.3,8.79-1.22,3.34,.08,6.21,.6,8.63,1.55,2.42,.96,4.46,2.15,6.12,3.58,1.66,1.43,3,2.99,4.01,4.69,1.01,1.69,1.74,3.29,2.2,4.78l-11.14,4.36c-.57-1.87-1.66-3.56-3.26-5.09-1.6-1.52-3.82-2.32-6.66-2.39-2.72-.07-4.99,.51-6.81,1.73-1.82,1.22-2.76,2.85-2.81,4.89-.05,1.98,.77,3.68,2.47,5.11,1.69,1.43,4.41,2.84,8.15,4.23l4.14,1.49c2.63,.99,5.03,2.12,7.2,3.38,2.16,1.26,4.01,2.74,5.55,4.45,1.53,1.71,2.69,3.64,3.47,5.79,.78,2.15,1.14,4.62,1.07,7.4-.09,3.46-.85,6.42-2.3,8.89-1.45,2.47-3.28,4.48-5.48,6.03-2.2,1.55-4.67,2.7-7.41,3.43-2.74,.74-5.4,1.07-8,1.01"/><polygon class="cls-1" points="538.62 61.34 551.13 61.65 550.48 88.15 578.37 88.83 579.02 62.33 591.53 62.64 589.9 128.98 577.4 128.68 578.08 100.69 550.19 100.01 549.51 127.99 537 127.69 538.62 61.34"/><path class="cls-1" d="M620.09,126.77c-1.66-.04-3.07-.64-4.22-1.81-1.15-1.17-1.71-2.55-1.67-4.16,.04-1.6,.66-2.95,1.86-4.04,1.2-1.09,2.64-1.61,4.3-1.57,1.66,.04,3.06,.63,4.19,1.77,1.13,1.14,1.67,2.52,1.64,4.12-.04,1.61-.65,2.96-1.83,4.07-1.18,1.11-2.6,1.64-4.27,1.6"/><path class="cls-1" d="M665.7,119.19c-1.55,2.83-3.67,5.12-6.37,6.89-2.7,1.76-6.04,2.59-10.01,2.5-2.63-.06-5.04-.57-7.21-1.52-2.17-.95-4.04-2.26-5.59-3.91-1.55-1.65-2.76-3.59-3.6-5.81-.85-2.21-1.24-4.64-1.18-7.27,.06-2.63,.57-5.05,1.52-7.24,.95-2.2,2.25-4.07,3.88-5.63,1.63-1.56,3.56-2.76,5.77-3.61,2.21-.85,4.64-1.24,7.27-1.18,3.93,.09,7.21,1.07,9.84,2.94,2.64,1.86,4.54,4.24,5.72,7.14l-8.4,3.27c-.75-1.59-1.73-2.8-2.93-3.64-1.21-.84-2.73-1.28-4.58-1.32-1.2-.03-2.34,.18-3.41,.61-1.07,.44-2.03,1.06-2.85,1.87-.83,.81-1.49,1.81-1.98,3-.49,1.19-.75,2.52-.79,4-.04,1.48,.16,2.82,.6,4.03,.43,1.21,1.04,2.24,1.83,3.09,.79,.85,1.71,1.52,2.76,2.01s2.18,.74,3.38,.77c1.89,.05,3.51-.34,4.85-1.17,1.34-.82,2.42-2.03,3.24-3.63l8.23,3.8Z"/><path class="cls-1" d="M687.58,93.3c2.63,.06,5.04,.57,7.21,1.52,2.17,.95,4.04,2.25,5.59,3.88,1.56,1.63,2.76,3.57,3.61,5.81,.85,2.24,1.24,4.67,1.18,7.31-.06,2.63-.57,5.05-1.53,7.24-.95,2.2-2.25,4.07-3.88,5.63-1.63,1.55-3.56,2.76-5.77,3.61-2.22,.85-4.64,1.24-7.27,1.18-2.63-.06-5.04-.57-7.21-1.52-2.17-.95-4.04-2.25-5.59-3.88-1.55-1.63-2.76-3.57-3.6-5.81-.85-2.24-1.24-4.67-1.18-7.31,.06-2.63,.57-5.05,1.53-7.24,.95-2.2,2.25-4.07,3.88-5.63,1.63-1.56,3.56-2.76,5.77-3.61,2.22-.85,4.64-1.24,7.27-1.18m-.66,27.79c1.15,.03,2.28-.16,3.38-.58,1.1-.41,2.07-1.03,2.92-1.84,.85-.81,1.53-1.81,2.05-3,.51-1.19,.79-2.55,.82-4.07,.04-1.52-.17-2.89-.63-4.1-.46-1.21-1.09-2.24-1.9-3.1-.81-.85-1.76-1.51-2.83-1.97-1.08-.46-2.19-.71-3.35-.74-1.2-.03-2.34,.16-3.41,.58-1.07,.41-2.03,1.03-2.89,1.84-.85,.81-1.53,1.81-2.05,3-.51,1.19-.79,2.55-.83,4.07-.04,1.53,.17,2.89,.63,4.11,.46,1.21,1.09,2.24,1.9,3.1,.81,.85,1.74,1.51,2.8,1.97s2.18,.71,3.38,.74"/><path class="cls-1" d="M710.71,94.96l8.52,.2-.11,4.44h.55c1.1-1.62,2.58-2.93,4.43-3.9,1.85-.97,3.88-1.43,6.1-1.38,2.59,.06,4.74,.71,6.47,1.96,1.73,1.24,2.94,2.75,3.64,4.52,1.1-1.68,2.64-3.11,4.61-4.29,1.97-1.18,4.34-1.73,7.11-1.67,2.08,.05,3.87,.43,5.38,1.13,1.51,.71,2.74,1.67,3.71,2.9,.96,1.23,1.68,2.69,2.15,4.39,.47,1.7,.68,3.54,.63,5.53l-.51,21.41-9.08-.22,.47-19.75c.11-4.62-1.73-6.97-5.52-7.07-1.2-.03-2.27,.21-3.21,.72-.94,.51-1.73,1.21-2.37,2.09-.65,.89-1.16,1.95-1.53,3.19-.38,1.24-.58,2.57-.62,4.01l-.39,16.49-9.08-.22,.47-19.75c.11-4.62-1.82-6.98-5.79-7.07-1.15-.03-2.18,.21-3.07,.72-.89,.51-1.65,1.21-2.27,2.1-.62,.89-1.11,1.95-1.46,3.19-.35,1.24-.55,2.58-.58,4.01l-.39,16.49-9.08-.22,.81-33.95Z"/><polygon class="cls-2" points="56.36 117.97 57.76 68.76 46.39 73.17 42.23 62.74 61.14 54.54 70.33 54.81 68.52 118.32 56.36 117.97"/><path class="cls-2" d="M102.37,120.78c-2.6-.07-5.08-.49-7.45-1.23-2.36-.75-4.52-1.85-6.46-3.3-1.94-1.45-3.64-3.25-5.1-5.4-1.46-2.15-2.55-4.63-3.27-7.43l11.55-4.22c.72,3.12,2.01,5.49,3.89,7.13,1.87,1.63,4.26,2.49,7.18,2.57,1.3,.04,2.54-.13,3.73-.5,1.19-.37,2.22-.91,3.11-1.63,.89-.72,1.61-1.58,2.16-2.59,.55-1.01,.85-2.16,.89-3.46,.08-2.72-.87-4.89-2.84-6.49-1.97-1.6-4.72-2.46-8.24-2.56l-5.48-.16,.32-11.05,5.01,.14c1.24,.04,2.45-.08,3.63-.36,1.18-.28,2.24-.73,3.15-1.35,.92-.62,1.65-1.44,2.21-2.45,.55-1.01,.85-2.19,.89-3.55,.06-2.11-.63-3.84-2.08-5.22-1.45-1.37-3.44-2.1-5.98-2.17-2.72-.08-4.83,.59-6.33,2-1.5,1.41-2.55,3.01-3.16,4.79l-11.01-4.87c.6-1.53,1.48-3.1,2.64-4.71s2.61-3.05,4.35-4.34c1.74-1.28,3.77-2.31,6.08-3.08,2.31-.77,4.96-1.11,7.93-1.03,3.03,.09,5.79,.6,8.27,1.54,2.48,.94,4.6,2.19,6.35,3.76,1.75,1.57,3.09,3.4,4.02,5.51,.93,2.1,1.36,4.36,1.29,6.78-.05,1.86-.33,3.52-.84,4.99-.51,1.47-1.15,2.79-1.92,3.94-.78,1.16-1.66,2.14-2.64,2.95-.98,.81-1.98,1.45-2.98,1.91l-.02,.74c2.94,1.26,5.34,3.22,7.22,5.87,1.88,2.66,2.76,5.97,2.64,9.93-.08,2.79-.68,5.33-1.8,7.62-1.12,2.29-2.68,4.28-4.68,5.95-2,1.68-4.38,2.96-7.13,3.84-2.75,.88-5.8,1.27-9.14,1.18"/></g></g><g><g><path class="cls-4" d="M438.33,281.51c3.48,.56,3.88,.29,4.16-2.9,1.51-17.19,3.01-34.37,4.51-51.56,.22-2.54,.52-2.86,2.98-3.1,2.15-.21,4.29-.41,6.44-.56,2.5-.18,3.16,.46,3.09,2.92-.02,.6-.09,1.19-.14,1.79-1.44,16.53-2.89,33.06-4.33,49.59l-.2,2.26c3.34,.71,3.94,.3,4.21-2.72,.23-2.57,.48-5.13,.66-7.7,.11-1.56,.81-2.39,2.44-2.49,2.45-.16,4.89-.47,7.34-.64,2.06-.15,2.86,.67,2.71,2.78-.17,2.57-.43,5.13-.66,7.7l-.17,1.95c1.23-.08,2.18-.05,3.09-.25,.39-.09,.78-.62,.96-1.04,.18-.41,.12-.94,.16-1.42,1.5-17.19,3-34.38,4.51-51.56,.27-3.05,.52-3.29,3.55-3.54,1.85-.15,3.69-.34,5.54-.5,3.02-.26,3.68,.39,3.42,3.38-.67,7.76-1.35,15.52-2.03,23.27-1.08,12.35-2.16,24.71-3.24,37.06-.26,2.99-.62,3.31-3.57,3.57-23.74,2.06-47.48,4.13-71.22,6.2-7.81,.68-15.63,1.38-23.44,2.06-.42,.04-.84,.03-1.26,.01-2.4-.12-3.07-1.04-2.13-3.22,.82-1.92,1.72-3.83,2.83-5.6,.42-.67,1.5-1.24,2.33-1.31,10.61-.98,21.23-1.86,31.85-2.77,.06,0,.12,0,.18,0,1.27-.18,3.09,0,2.9-1.83-.18-1.79-1.94-.94-2.96-.86-10.61,.86-21.22,1.82-32,2.76,.01-3.68-.14-7.14,.99-10.7,1.53-4.81,2.47-9.84,3.3-14.83,.51-3.1-.69-5.98-2.45-8.62-.55-.81-.86-1.98-.81-2.96,.25-4.6,.67-9.2,1.04-13.79,.24-3.04,.67-3.46,3.66-3.71,2.03-.17,4.05-.4,6.08-.54,2.39-.17,3.04,.52,2.83,2.89-1.12,12.89-2.25,25.78-3.37,38.67-.23,2.66-.19,2.66,2.39,2.43,10.49-.94,20.99-1.88,31.48-2.79,2.41-.21,3.21,.6,3.03,2.98-.19,2.39-.42,4.77-.61,7.16-.06,.7-.05,1.4-.06,2.08"/><path class="cls-4" d="M171.83,305.05c1.89-.14,3.49-.26,5.08-.39,4.48-.37,8.95-.81,13.43-1.1,1.58-.1,2.13-.7,2.25-2.27,.53-6.87,1.16-13.73,1.77-20.6,.24-2.76,.45-2.99,3.21-3.28,2.2-.23,4.41-.45,6.62-.61,2.05-.16,2.86,.65,2.72,2.76-.17,2.51-.43,5.02-.64,7.52-.05,.64-.06,1.28-.1,2.18,1.2-.1,2.23-.06,3.17-.32,.38-.1,.77-.85,.82-1.33,.32-2.92,.6-5.84,.78-8.77,.11-1.8,.8-2.74,2.7-2.83,2.33-.11,4.65-.44,6.98-.63,2.26-.18,2.98,.48,2.84,2.76-.15,2.51-.43,5.01-.63,7.52-.05,.64-.02,1.29-.03,1.97,.56,.05,.96,.14,1.36,.11,2.46-.17,2.46-.18,2.69-2.71,.23-2.63,.48-5.25,.68-7.88,.13-1.62,.88-2.49,2.58-2.6,2.33-.15,4.65-.46,6.98-.64,2.39-.18,3.12,.59,2.92,3.06-.21,2.57-.45,5.13-.66,7.7-.06,.75-.31,1.82,.94,1.6,1.05-.19,2.78,.71,2.99-1.33,.31-2.98,.53-5.97,.8-8.95,.2-2.19,.64-2.65,2.86-2.88,2.26-.24,4.53-.47,6.8-.64,2.35-.17,3.02,.54,2.85,2.93-.18,2.45-.43,4.9-.62,7.34-.05,.64,0,1.28,0,1.89,3.01,.54,3.29,.34,3.54-2.42,1.12-12.83,2.24-25.67,3.37-38.5,.28-3.18,.58-3.47,3.81-3.72,1.91-.15,3.82-.34,5.73-.49,2.44-.2,3.14,.48,3.08,2.95-.01,.54-.08,1.08-.13,1.61-1.08,12.36-2.16,24.71-3.24,37.07l-.18,2.08c3.29,.59,3.64,.33,3.9-2.65,.22-2.57,.47-5.13,.67-7.7,.13-1.64,.94-2.47,2.61-2.59,2.39-.17,4.77-.45,7.16-.64,2.08-.17,2.9,.6,2.73,2.72-.47,5.85-1.03,11.7-1.51,17.55-.14,1.68-1.01,2.4-2.64,2.54-18.62,1.6-37.23,3.24-55.84,4.86-7.16,.62-14.32,1.28-21.48,1.82-1.74,.13-2.53,.63-2.56,2.51-.03,2.51-.39,5.02-.61,7.52-.24,2.7-.75,3.17-3.38,3.4-12.77,1.11-25.53,2.24-38.3,3.36-.48,.04-.96,.06-1.44,.07-2.13,.02-2.72-.57-2.57-2.66,.21-2.75,.48-5.49,.71-8.24,.58-7.05,1.15-14.09,1.74-21.14,.25-2.95,.77-3.46,3.72-3.71,1.97-.17,3.94-.33,5.91-.49,2.53-.21,3.25,.49,3.04,3.09-.56,6.69-1.16,13.37-1.74,20.06l-.19,2.17"/><path class="cls-4" d="M313.04,279.69c3.74,.41,3.95,.25,4.24-3.02,1.12-12.83,2.24-25.66,3.36-38.48,.23-2.67,.42-2.87,3.11-3.15,2.14-.22,4.29-.39,6.44-.58,2.35-.2,3.07,.51,2.86,2.87-1.08,12.47-2.18,24.94-3.27,37.41-.04,.48-.16,.96-.11,1.43,.1,.85-.76,2.17,1.07,2.25,2.21,.1,2.76-.25,2.93-2.09,1.14-13.01,2.27-26.01,3.41-39.02,.29-3.27,.5-3.49,3.74-3.79,2.03-.19,4.05-.4,6.08-.54,2.23-.15,3,.6,2.83,2.8-.38,4.72-.8,9.43-1.24,14.14-.05,.58-.11,1.34-.48,1.69-2.42,2.33-2.96,5.4-3.45,8.48-.59,3.76-1.34,7.53-1.48,11.32-.07,1.98,.74,4.14,1.65,5.98,1.52,3.08,.22,5.98-.15,8.93-.05,.42-1.19,.95-1.86,1.01-10.37,.96-20.75,1.85-31.12,2.75-5.9,.51-11.81,1.01-17.71,1.53-2.94,.26-3.62-.35-3.41-3.23,.09-1.25,.2-2.51,.33-3.76,.23-2.3,.73-2.78,2.99-2.97,1.55-.13,3.1-.34,4.65-.39,1.46-.05,2.03-.6,2.14-2.13,.5-6.81,1.15-13.61,1.74-20.41,.23-2.64,.47-2.88,3.13-3.15,2.26-.23,4.53-.44,6.79-.63,1.93-.16,2.72,.51,2.57,2.48-.48,6.69-1.07,13.37-1.61,20.05-.06,.7-.12,1.4-.19,2.22"/><path class="cls-4" d="M208.53,306.57q.41-4.71,5.09-5.13c31.31-2.73,62.61-5.44,93.91-8.17,11.75-1.02,23.49-2.06,35.23-3.14,1.64-.15,2.65,.39,3.18,1.92,.49,1.41,1.03,2.81,1.51,4.22,.8,2.39,.17,3.4-2.31,3.62-10.25,.92-20.51,1.82-30.76,2.71-18.84,1.65-37.68,3.27-56.52,4.93-15.32,1.35-30.64,2.73-45.96,4.08-3.18,.28-3.76-.33-3.5-3.44,.05-.54,.09-1.07,.14-1.61"/><path class="cls-4" d="M374.64,234.37c-1.62,.97-2.83,1.69-4.03,2.4l.53,.79c1.33-.23,2.66-.62,3.99-.63,.7,0,1.59,.49,2.04,1.05,.35,.44,.16,1.32,.24,2.37,2.71,1.75,5.66,4.21,9.76,4.13,.61-.01,1.37,.5,1.83,.99,4.64,4.94,6.81,10.5,4.87,17.39-1,3.54-1.19,7.29-3.05,10.62-.49,.88-.55,2.09-.53,3.15,.07,3.56-.8,6.9-2.39,10.03-2.29,4.53-4.7,9.01-7.12,13.47-.47,.87-1.13,1.77-1.94,2.32-5.54,3.76-11.49,6.8-18.38,5.8-3.51-.51-6.89-2.24-10.22-3.66-1.45-.62-1.79-2.15-1.88-3.8-.13-2.23-.34-4.55-1.08-6.63-1.66-4.63-2.29-9.24-1.01-14.05,.1-.36,.12-.87-.06-1.16-3.2-5.25-3.05-10.78-1.5-16.47,.49-1.78,.82-3.61,1.14-5.44,.36-2.12,1.27-3.84,3.18-4.95,1.34-.79,2.76-1.48,3.98-2.42,1.08-.84,1.94-1.97,2.89-2.98,.08-.08,.09-.27,.18-.3,2.1-.86,1.72-2.83,2.2-4.51,.9-3.13,3.15-4.95,6.42-5.51,.97-.17,2.04-.43,2.8-.99,2.06-1.54,4.24-1.67,7.17-.97m-23.5,36.78c-.9,2.33-1.81,4.52-2.57,6.77-.39,1.16-.81,2.45-.67,3.62,.29,2.3,.95,4.56,1.47,6.83,.25,1.06,.75,1.73,2.03,1.38,1.43-.38,2.15,.34,2.71,1.65,.37,.86,1.11,1.78,1.93,2.19,5.53,2.83,11.21,3.7,17.05,.82,1.18-.58,2.47-.98,3.56-1.69,.8-.51,1.54-1.29,1.99-2.12,.86-1.59,1.89-2.84,3.58-3.6,.82-.37,1.68-1.06,2.1-1.84,1.06-1.94,2.11-3.93,2.74-6.03,1.2-3.97,2.09-8.03-2.12-11.04-.32-.23-.4-.8-.73-1.01-.9-.58-1.89-1.54-2.79-1.48-2.9,.18-5.77,.79-8.67,1.15-1.11,.14-2.25,.05-3.38,.06-.03-.21-.05-.41-.08-.62,1.75-.75,3.49-1.49,4.86-2.08,.53-.88,.75-1.77,1.3-2.07,2.8-1.55,5.51-.77,8.45,.58-1.43,.28-2.56,.5-3.7,.72,1.52,.38,3.06,.33,4.49,.71,.74,.19,1.32,1.09,1.91,1.72,.41,.44,.69,.99,1.04,1.5-.08-3.17-.62-6.08-.88-9.02-.35-4-2.37-6.68-5.98-8.24-5.63-2.44-11.13-2.25-16.61,.63-2.15,1.13-4.56,1.74-6.82,2.66-.75,.31-1.66,.67-2.07,1.29-1.49,2.21-3.21,4.41-4.07,6.88-1.02,2.93-1.24,6.13-1.81,9.22,.58,.15,1.08,.29,1.75,.46"/><path class="cls-4" d="M515.78,274.21c-.23,2.62-.45,5.24-.69,7.85-.22,2.45-.76,3.02-3.15,3.24-5.77,.54-11.55,1.06-17.32,1.58-2.75,.25-3.46-.47-3.26-3.23,.1-1.31,.21-2.62,.34-3.93,.23-2.18,.75-2.67,2.9-2.85,2.26-.19,4.53-.43,6.79-.55,1.25-.07,1.78-.56,1.86-1.84,.17-2.81,.46-5.6,.71-8.4,.19-2.18,.8-2.77,3.01-2.95,2.26-.18,4.52-.43,6.79-.56,2.18-.12,2.87,.51,2.75,2.71-.16,2.98-.5,5.96-.76,8.94h.02Z"/><path class="cls-4" d="M471.25,293.28c-.23,3.3-2.8,4.89-5.96,3.68-.16-.06-.34-.14-.46-.26-1.45-1.44-.74-3.18-.43-4.73,.13-.68,1.16-1.29,1.9-1.72,.47-.27,1.16-.18,1.76-.22,2.85-.16,3.39,.39,3.19,3.24"/><path class="cls-4" d="M463.34,294.31c.03,3.43-1.36,3.33-5.05,3.46-1.71,.06-2.2-.97-1.98-3.59,.23-2.77,1.68-3.79,5.05-3.57,1.87,.12,2.21,.76,1.99,3.7"/><path class="cls-4" d="M285.74,309.71c-.16,3.48-1.46,3.56-5.22,3.59-1.7,.02-1.94-.89-1.73-4.25,.18-2.92,1.7-2.67,5.12-2.84,1.59-.08,2.06,.98,1.84,3.5"/><path class="cls-4" d="M258.46,267.67c-.18,3.23-1.4,3.36-5.03,3.39-1.6,.01-2.28-1.22-2.07-3.43,.33-3.54,.81-3.4,5.18-3.6,1.69-.08,2.15,.98,1.91,3.64"/><path class="cls-4" d="M270.99,310.34c.35-3.03,1.46-3.81,5.04-3.49,1.73,.15,2.22,1.13,1.92,3.84-.31,2.74-1.73,3.71-4.99,3.38-1.86-.18-2.28-.98-1.97-3.73"/><path class="cls-4" d="M243.61,268.19c.26-3.03,1.35-3.78,5.08-3.48,1.76,.14,2.22,.99,1.98,3.61-.26,2.9-1.62,3.86-5,3.55-1.92-.18-2.3-.86-2.06-3.68"/><path class="cls-4" d="M370.57,267.71c-1.51,.99-2.8,1.83-4.1,2.69-1.31-3.02-1.31-2.96-4.53-3.1-1.21-.05-2.41-.46-3.88-.75,3.48-1.88,6.73-1.54,12.51,1.17"/><path class="cls-4" d="M369.41,272.99c4.5,.04,9.01,.08,13.93,.12-4.93,2.95-9.44,2.13-13.93-.12"/><path class="cls-4" d="M351.14,275.25c4.86-.63,9.46-1.23,14.44-1.88-4.64,3.24-9.24,3.83-14.44,1.88"/><path class="cls-4" d="M363.65,264.53c-3.05,.33-5.86,.64-8.82,.96,1.79-3.65,5.54-4.04,8.82-.96"/></g><g><path class="cls-4" d="M533.56,275.83v-4.65h4.89v4.65h-4.89Zm0,7.18v-4.61h4.89v4.61h-4.89Z"/><path class="cls-4" d="M547.58,272.04c.04,2.2,.08,7.58,.08,8.48,0,3.3,2.73,5.95,5.87,5.95s5.91-2.69,5.87-5.99l-.16-23.97h5.75l.04,17.98c0,2.45,1.92,3.42,2.85,3.42h3.87v5.1h-4.2c-1.06,0-1.92-.24-2.61-.77-.77,5.46-5.59,9.66-11.38,9.66-6.4,0-11.5-5.18-11.5-11.42,0-1.18-.16-5.95-.16-8.44h5.67Z"/><path class="cls-4" d="M586.72,283.01c-2.2,0-3.55-1.39-4.2-2.41-1.14,1.55-3.1,2.41-5.06,2.41-2.28,.04-4.12,0-6.4,0v-5.1h4.77c1.1,0,2.61-.65,2.61-2.08l-.08-8.36h5.71c.04,2.2,.04,4.61,.08,6.81,.04,2.57,1.92,3.63,2.89,3.63h3.87v5.1h-4.2Zm-7.87,7.99v-4.77h4.93v4.77h-4.93Z"/><path class="cls-4" d="M604.99,283.01h-14.8v-5.1h12.44c.65,0,1.06-.29,1.06-1.22v-.33h-2.89c-4.65,0-7.5-3.87-7.34-7.62,.33-10.76,15.74-10.52,15.86-1.14,.04,3.55,0,7.83,0,11.38,.04,2.49-1.59,4.04-4.32,4.04Zm-9.42-25.65v-4.77h4.89v4.77h-4.89Zm8.03,9.83c0-.94-.45-2.28-2.04-2.28-3.34,0-3.67,6.44-.16,6.44h2.24c0-1.35-.04-2.77-.04-4.16Zm-1.1-9.83v-4.77h4.89v4.77h-4.89Z"/><path class="cls-4" d="M646.57,283.01c-1.06,0-1.92-.37-2.61-.77-.77,5.46-5.59,9.66-11.38,9.66-6.4,0-11.5-5.18-11.5-11.42,0-1.18-.16-10.48-.16-12.97h5.67c.04,2.24,.08,12.11,.08,13.01,.04,3.3,2.69,5.95,5.87,5.95s5.91-2.69,5.87-5.99l-.16-13.01h5.75l.04,7.01c0,2.45,1.92,3.42,2.85,3.42h3.87v5.1h-4.2Zm-16.55-19.33v-4.69h4.89v4.69h-4.89Z"/><path class="cls-4" d="M662.72,283.01h-12.64v-5.1h4.77c-.29-.9-.41-1.83-.41-2.81,0-4.53,2.81-7.95,8.28-7.95s8.28,3.42,8.28,7.91-2.81,7.95-8.28,7.95Zm0-11.42c-2.12,0-2.73,1.79-2.73,3.51s.61,3.43,2.73,3.43,2.73-1.79,2.73-3.43c0-1.71-.65-3.51-2.73-3.51Z"/></g></g></g></g></svg>