<?xml version="1.0" encoding="utf-8"?>
<!-- Generator: Adobe Illustrator 24.0.1, SVG Export Plug-In . SVG Version: 6.00 Build 0)  -->
<svg version="1.1" xmlns="http://www.w3.org/2000/svg" xmlns:xlink="http://www.w3.org/1999/xlink" x="0px" y="0px"
	 viewBox="0 0 213 200.9" style="enable-background:new 0 0 213 200.9;" xml:space="preserve">
<style type="text/css">
	.st0{display:none;}
	.st1{display:inline;fill:#DCE4E7;}
	.st2{display:inline;}
	.st3{fill:#DCE4E7;}
	.st4{fill:none;stroke:#09a59a;stroke-width:8.3216;stroke-linejoin:round;}
	.st5{fill:#FFFFFF;stroke:#09a59a;stroke-width:8.3216;}
	.st6{fill:#DDF3F1;}
	.st7{fill:none;stroke:#FFFFFF;stroke-width:8.3216;}
	.st8{fill:none;stroke:#09a59a;stroke-width:8.3216;}
	.st9{fill:#00bfb2;}
	.st10{fill:none;stroke:#09a59a;stroke-width:8.3216;stroke-miterlimit:10;}
	.st11{fill:none;stroke:#09a59a;stroke-width:8.3216;stroke-dasharray:8.3698,8.3698;}
	.st12{fill:none;stroke:#09a59a;stroke-width:8.3216;stroke-dasharray:8.4853,8.4853;}
	.st13{fill:none;stroke:#09a59a;stroke-width:8.3216;stroke-linejoin:bevel;}
	.st14{fill:#FFFFFF;}
	.st15{fill:#FFFFFF;stroke:#09a59a;stroke-width:8.3216;stroke-linejoin:round;stroke-miterlimit:10;}
	.st16{fill:#FFFFFF;stroke:#09a59a;stroke-width:8.3216;stroke-linejoin:bevel;stroke-miterlimit:10;}
	.st17{fill:#DDF3F1;stroke:#09a59a;stroke-width:8.3216;}
	.st18{fill:#FFFFFF;stroke:#09a59a;stroke-width:8.3216;stroke-linecap:round;stroke-linejoin:bevel;}
	.st19{fill:none;stroke:#00bfb2;stroke-width:8.3216;}
	.st20{fill:none;stroke:#09a59a;stroke-width:8.3216;stroke-dasharray:8.4436,8.4436;}
	.st21{fill:none;stroke:#09a59a;stroke-width:8.3216;stroke-dasharray:8.263,8.263;}
	.st22{fill:#FFFFFF;stroke:#FFFFFF;stroke-width:8.3216;}
	.st23{fill:#09a59a;}
	.st24{fill:none;stroke:#09a59a;stroke-width:8.3216;stroke-linejoin:round;stroke-miterlimit:10;}
	.st25{fill:#FFFFFF;stroke:#DDF3F1;stroke-width:8.3216;}
	.st26{fill:none;stroke:#09a59a;stroke-width:8.3216;stroke-dasharray:8.1117,8.1117;}
	.st27{fill:none;stroke:#09a59a;stroke-width:8.3216;stroke-dasharray:8.2629,8.2629;}
	.st28{fill:#FFFFFF;stroke:#09a59a;stroke-width:8.3216;stroke-linecap:round;stroke-linejoin:round;}
	.st29{fill:#DDF3F1;stroke:#DDF3F1;stroke-width:8.3216;}
	.st30{fill:none;stroke:#09a59a;stroke-width:8.3216;stroke-dasharray:8.4422,8.4422;}
	.st31{fill:none;stroke:#09a59a;stroke-width:8.3216;stroke-dasharray:8.4238,8.4238;}
	.st32{fill:none;stroke:#09a59a;stroke-width:8.3216;stroke-dasharray:8.5667,8.5667;}
	.st33{fill:#00bfb2;stroke:#00bfb2;stroke-width:8.3216;}
	.st34{fill:none;stroke:#DDF3F1;stroke-width:8.3216;}
	.st35{fill:none;stroke:#09a59a;stroke-width:8.3216;stroke-linecap:round;stroke-miterlimit:10;}
	.st36{fill:#FFFFFF;stroke:#09a59a;stroke-width:8.3216;stroke-miterlimit:10;}
	.st37{fill:#FFFFFF;stroke:#09a59a;stroke-width:8.3216;stroke-linecap:round;stroke-miterlimit:10;}
	.st38{fill:#DDF3F1;stroke:#DDF3F1;stroke-width:8.3216;stroke-linecap:round;stroke-linejoin:round;}
	.st39{fill:#00bfb2;stroke:#09a59a;stroke-width:8.3216;}
	.st40{fill:#FFFFFF;stroke:#09a59a;stroke-width:8.3216;stroke-linejoin:round;}
	.st41{fill:#FFFFFF;stroke:#09a59a;stroke-width:8.3216;stroke-linejoin:bevel;}
	.st42{fill:none;stroke:#09a59a;stroke-width:8.3216;stroke-dasharray:8.3264,8.3264;}
	.st43{fill:none;stroke:#09a59a;stroke-width:8.3216;stroke-dasharray:8.5535,8.5535;}
	.st44{fill:#00bfb2;stroke:#09a59a;stroke-width:8.3216;stroke-linejoin:bevel;}
	.st45{fill:none;stroke:#09a59a;stroke-width:8.3216;stroke-dasharray:8.5104,8.5104;}
	.st46{fill:none;stroke:#09a59a;stroke-width:8.3216;stroke-dasharray:8.4012,8.4012;}
	.st47{fill:none;stroke:#09a59a;stroke-width:8.3216;stroke-dasharray:7.9763,7.9763;}
</style>
<g id="Layer_2">
	<g class="st0">
		<g class="st2">
			<rect x="4" y="6.9" class="st3" width="208" height="208"/>
		</g>
	</g>
</g>
<g id="Layer_3">
</g>
<g id="Layer_4">
	<g>
		<g>
			<rect y="84" class="st6" width="86.5" height="116.9"/>
			<rect x="10.4" y="81.2" class="st14" width="76.1" height="108"/>
			<g>
				<line class="st5" x1="55.2" y1="77" x2="39.5" y2="77"/>
				<path class="st8" d="M22.9,77H11v112.1h60.3c6.5,0,11.8,5.3,11.8,11.8v-75.4"/>
			</g>
			<g>
				<line class="st5" x1="23" y1="94.5" x2="55.2" y2="94.5"/>
				<line class="st5" x1="23" y1="109.7" x2="55.2" y2="109.7"/>
				<line class="st5" x1="23" y1="124.8" x2="70.3" y2="124.8"/>
				<line class="st5" x1="23" y1="139.8" x2="70.3" y2="139.8"/>
				<line class="st5" x1="23" y1="154.9" x2="70.3" y2="154.9"/>
				<line class="st5" x1="23" y1="169.9" x2="70.3" y2="169.9"/>
			</g>
		</g>
		<g>
			<path class="st40" d="M83.3,39.6c10.8-7.7,24-12.3,38.3-12.3c36.4,0,65.9,29.5,65.9,65.9c0,1,0,2-0.1,3l9.2,16l12.1,21h-15.3v26
				c0,9.8-8,17.8-17.8,17.8h-28.2v23.7"/>
		</g>
		<path class="st9" d="M91.1,89.1c0,20.3,16.5,36.8,36.8,36.8c20.3,0,36.8-16.5,36.8-36.8c0-20.3-16.5-36.8-36.8-36.8
			C107.6,52.3,91.1,68.8,91.1,89.1z"/>
		<circle class="st5" cx="127.9" cy="89.1" r="20.1"/>
		<g>
			<g>
				<path class="st8" d="M48.8,48.3L48.8,48.3c9.8,0,17.7,7.9,17.7,17.7v5.4"/>
			</g>
			<path class="st8" d="M105.1,4.2L105.1,4.2c-12.5,0-22.7,10.2-22.7,22.7v74.7"/>
			<path class="st8" d="M66.5,70.4v37c0,4.4,3.6,7.9,7.9,7.9l0,0c4.4,0,7.9-3.6,7.9-7.9v-21"/>
			<g>
				<path class="st8" d="M104.6,4.2L104.6,4.2c12.6,0,22.7,10.2,22.7,22.7v38.8"/>
			</g>
			<path class="st8" d="M49.2,48.3L49.2,48.3c-9.8,0-17.7,7.9-17.7,17.7v14.8"/>
		</g>
	</g>
</g>
</svg>
