<?xml version="1.0" encoding="utf-8"?>
<!-- Generator: Adobe Illustrator 24.0.1, SVG Export Plug-In . SVG Version: 6.00 Build 0)  -->
<svg version="1.1" xmlns="http://www.w3.org/2000/svg" xmlns:xlink="http://www.w3.org/1999/xlink" x="0px" y="0px"
	 viewBox="0 0 199.2 199.2" style="enable-background:new 0 0 199.2 199.2;" xml:space="preserve">
<style type="text/css">
	.st0{display:none;}
	.st1{display:inline;fill:#DCE4E7;}
	.st2{display:inline;}
	.st3{fill:#DCE4E7;}
	.st4{fill:none;stroke:#09a59a;stroke-width:8.3216;stroke-linejoin:round;}
	.st5{fill:#FFFFFF;stroke:#09a59a;stroke-width:8.3216;}
	.st6{fill:#FFFFFF;}
	.st7{fill:none;stroke:#FFFFFF;stroke-width:8.3216;}
	.st8{fill:none;stroke:#09a59a;stroke-width:8.3216;}
	.st9{fill:#00bfb2;}
	.st10{fill:none;stroke:#09a59a;stroke-width:8.3216;stroke-miterlimit:10;}
	.st11{fill:none;stroke:#09a59a;stroke-width:8.3216;stroke-dasharray:8.3698,8.3698;}
	.st12{fill:none;stroke:#09a59a;stroke-width:8.3216;stroke-dasharray:8.4853,8.4853;}
	.st13{fill:none;stroke:#09a59a;stroke-width:8.3216;stroke-linejoin:bevel;}
	.st14{fill:#FFFFFF;}
	.st15{fill:#FFFFFF;stroke:#09a59a;stroke-width:8.3216;stroke-linejoin:round;stroke-miterlimit:10;}
	.st16{fill:#FFFFFF;stroke:#09a59a;stroke-width:8.3216;stroke-linejoin:bevel;stroke-miterlimit:10;}
	.st17{fill:#DDF3F1;stroke:#09a59a;stroke-width:8.3216;}
	.st18{fill:#FFFFFF;stroke:#09a59a;stroke-width:8.3216;stroke-linecap:round;stroke-linejoin:bevel;}
	.st19{fill:none;stroke:#00bfb2;stroke-width:8.3216;}
	.st20{fill:none;stroke:#09a59a;stroke-width:8.3216;stroke-dasharray:8.4436,8.4436;}
	.st21{fill:none;stroke:#09a59a;stroke-width:8.3216;stroke-dasharray:8.263,8.263;}
	.st22{fill:#FFFFFF;stroke:#FFFFFF;stroke-width:8.3216;}
	.st23{fill:#09a59a;}
	.st24{fill:none;stroke:#09a59a;stroke-width:8.3216;stroke-linejoin:round;stroke-miterlimit:10;}
	.st25{fill:#FFFFFF;stroke:#DDF3F1;stroke-width:8.3216;}
	.st26{fill:none;stroke:#09a59a;stroke-width:8.3216;stroke-dasharray:8.1117,8.1117;}
	.st27{fill:none;stroke:#09a59a;stroke-width:8.3216;stroke-dasharray:8.2629,8.2629;}
	.st28{fill:#FFFFFF;stroke:#09a59a;stroke-width:8.3216;stroke-linecap:round;stroke-linejoin:round;}
	.st29{fill:#DDF3F1;stroke:#DDF3F1;stroke-width:8.3216;}
	.st30{fill:none;stroke:#09a59a;stroke-width:8.3216;stroke-dasharray:8.4422,8.4422;}
	.st31{fill:none;stroke:#09a59a;stroke-width:8.3216;stroke-dasharray:8.4238,8.4238;}
	.st32{fill:none;stroke:#09a59a;stroke-width:8.3216;stroke-dasharray:8.5667,8.5667;}
	.st33{fill:#00bfb2;stroke:#00bfb2;stroke-width:8.3216;}
	.st34{fill:none;stroke:#DDF3F1;stroke-width:8.3216;}
	.st35{fill:none;stroke:#09a59a;stroke-width:8.3216;stroke-linecap:round;stroke-miterlimit:10;}
	.st36{fill:#FFFFFF;stroke:#09a59a;stroke-width:8.3216;stroke-miterlimit:10;}
	.st37{fill:#FFFFFF;stroke:#09a59a;stroke-width:8.3216;stroke-linecap:round;stroke-miterlimit:10;}
	.st38{fill:#DDF3F1;stroke:#DDF3F1;stroke-width:8.3216;stroke-linecap:round;stroke-linejoin:round;}
	.st39{fill:#00bfb2;stroke:#09a59a;stroke-width:8.3216;}
	.st40{fill:#FFFFFF;stroke:#09a59a;stroke-width:8.3216;stroke-linejoin:round;}
	.st41{fill:#FFFFFF;stroke:#09a59a;stroke-width:8.3216;stroke-linejoin:bevel;}
	.st42{fill:none;stroke:#09a59a;stroke-width:8.3216;stroke-dasharray:8.3264,8.3264;}
	.st43{fill:none;stroke:#09a59a;stroke-width:8.3216;stroke-dasharray:8.5535,8.5535;}
	.st44{fill:#00bfb2;stroke:#09a59a;stroke-width:8.3216;stroke-linejoin:bevel;}
	.st45{fill:none;stroke:#09a59a;stroke-width:8.3216;stroke-dasharray:8.5104,8.5104;}
	.st46{fill:none;stroke:#09a59a;stroke-width:8.3216;stroke-dasharray:8.4012,8.4012;}
	.st47{fill:none;stroke:#09a59a;stroke-width:8.3216;stroke-dasharray:7.9763,7.9763;}
</style>
<g id="Layer_2">
	<g class="st0">
		<rect x="-3.6" y="-2.9" class="st1" width="208" height="208"/>
	</g>
</g>
<g id="Layer_3">
</g>
<g id="Layer_4">
	<g>
		<g>
			<g>
				<g>
					<g>
						<g>
							<path class="st8" d="M99.6,4.2C46.9,4.2,4.2,46.9,4.2,99.6c0,23.6,8.6,45.1,22.7,61.7l-9.6,29.6l27.8-13
								C60.5,188.7,79.3,195,99.6,195c52.7,0,95.4-42.7,95.4-95.4"/>
						</g>
					</g>
				</g>
			</g>
			<g>
				<path class="st8" d="M195,99.6c0-1.4,0-2.8-0.1-4.2"/>
				<path class="st42" d="M194.2,87.1C188.5,43,152.6,8.4,107.9,4.5"/>
				<path class="st8" d="M103.8,4.2c-1.4-0.1-2.8-0.1-4.2-0.1"/>
			</g>
			<path class="st6" d="M173.6,98.6c0,41.8-33.9,75.7-75.7,75.7c-41.8,0-75.7-33.9-75.7-75.7c0-41.8,33.9-75.7,75.7-75.7
				C139.7,22.9,173.6,56.8,173.6,98.6z"/>
		</g>
		<g>
			<g>
				<g>
					<path class="st8" d="M85.4,97.3H103c7.9,0,14.2,6.4,14.2,14.2l0,0c0,7.9-6.4,14.2-14.2,14.2H83.2"/>
					<path class="st8" d="M83.2,73.3h15c6.6,0,12,5.4,12,12l0,0c0,6.6-5.4,12-12,12H85.4"/>
				</g>
				<line class="st8" x1="86.4" y1="69.4" x2="86.4" y2="129.8"/>
			</g>
			<g>
				<path class="st8" d="M44.7,129.8V86.2c0-7.1,5.7-12.8,12.8-12.8l0,0c7.1,0,12.8,5.7,12.8,12.8v43.6"/>
				<line class="st8" x1="71" y1="96.6" x2="45.5" y2="96.6"/>
			</g>
			<path class="st8" d="M154.5,114.7c0,7-5.7,12.7-12.7,12.7l0,0c-7,0-12.7-5.7-12.7-12.7V85.5c0-7,5.7-12.7,12.7-12.7l0,0
				c7,0,12.7,5.7,12.7,12.7"/>
		</g>
	</g>
</g>
</svg>
