<?xml version="1.0" encoding="utf-8"?>
<!-- Generator: Adobe Illustrator 24.0.1, SVG Export Plug-In . SVG Version: 6.00 Build 0)  -->
<svg version="1.1" xmlns="http://www.w3.org/2000/svg" xmlns:xlink="http://www.w3.org/1999/xlink" x="0px" y="0px"
	 viewBox="0 0 242.2 161.4" style="enable-background:new 0 0 242.2 161.4;" xml:space="preserve">
<style type="text/css">
	.st0{display:none;}
	.st1{display:inline;fill:#DCE4E7;}
	.st2{display:inline;}
	.st3{fill:#DCE4E7;}
	.st4{fill:none;stroke:#09a59a;stroke-width:8.3216;stroke-linejoin:round;}
	.st5{fill:#FFFFFF;stroke:#09a59a;stroke-width:8.3216;}
	.st6{fill:#00bfb2;}
	.st7{fill:none;stroke:#FFFFFF;stroke-width:8.3216;}
	.st8{fill:none;stroke:#09a59a;stroke-width:8.3216;}
	.st9{fill:#00bfb2;}
	.st10{fill:none;stroke:#09a59a;stroke-width:8.3216;stroke-miterlimit:10;}
	.st11{fill:none;stroke:#09a59a;stroke-width:8.3216;stroke-dasharray:8.3698,8.3698;}
	.st12{fill:none;stroke:#09a59a;stroke-width:8.3216;stroke-dasharray:8.4853,8.4853;}
	.st13{fill:none;stroke:#09a59a;stroke-width:8.3216;stroke-linejoin:bevel;}
	.st14{fill:#FFFFFF;}
	.st15{fill:#FFFFFF;stroke:#09a59a;stroke-width:8.3216;stroke-linejoin:round;stroke-miterlimit:10;}
	.st16{fill:#FFFFFF;stroke:#09a59a;stroke-width:8.3216;stroke-linejoin:bevel;stroke-miterlimit:10;}
	.st17{fill:#DDF3F1;stroke:#09a59a;stroke-width:8.3216;}
	.st18{fill:#FFFFFF;stroke:#09a59a;stroke-width:8.3216;stroke-linecap:round;stroke-linejoin:bevel;}
	.st19{fill:none;stroke:#00bfb2;stroke-width:8.3216;}
	.st20{fill:none;stroke:#09a59a;stroke-width:8.3216;stroke-dasharray:8.4436,8.4436;}
	.st21{fill:none;stroke:#09a59a;stroke-width:8.3216;stroke-dasharray:8.263,8.263;}
	.st22{fill:#FFFFFF;stroke:#FFFFFF;stroke-width:8.3216;}
	.st23{fill:#09a59a;}
	.st24{fill:none;stroke:#09a59a;stroke-width:8.3216;stroke-linejoin:round;stroke-miterlimit:10;}
	.st25{fill:#FFFFFF;stroke:#DDF3F1;stroke-width:8.3216;}
	.st26{fill:none;stroke:#09a59a;stroke-width:8.3216;stroke-dasharray:8.1117,8.1117;}
	.st27{fill:none;stroke:#09a59a;stroke-width:8.3216;stroke-dasharray:8.2629,8.2629;}
	.st28{fill:#FFFFFF;stroke:#09a59a;stroke-width:8.3216;stroke-linecap:round;stroke-linejoin:round;}
	.st29{fill:#DDF3F1;stroke:#DDF3F1;stroke-width:8.3216;}
	.st30{fill:none;stroke:#09a59a;stroke-width:8.3216;stroke-dasharray:8.4422,8.4422;}
	.st31{fill:none;stroke:#09a59a;stroke-width:8.3216;stroke-dasharray:8.4238,8.4238;}
	.st32{fill:none;stroke:#09a59a;stroke-width:8.3216;stroke-dasharray:8.5667,8.5667;}
	.st33{fill:#00bfb2;stroke:#00bfb2;stroke-width:8.3216;}
	.st34{fill:none;stroke:#DDF3F1;stroke-width:8.3216;}
	.st35{fill:none;stroke:#09a59a;stroke-width:8.3216;stroke-linecap:round;stroke-miterlimit:10;}
	.st36{fill:#FFFFFF;stroke:#09a59a;stroke-width:8.3216;stroke-miterlimit:10;}
	.st37{fill:#FFFFFF;stroke:#09a59a;stroke-width:8.3216;stroke-linecap:round;stroke-miterlimit:10;}
	.st38{fill:#DDF3F1;stroke:#DDF3F1;stroke-width:8.3216;stroke-linecap:round;stroke-linejoin:round;}
	.st39{fill:#00bfb2;stroke:#09a59a;stroke-width:8.3216;}
	.st40{fill:#FFFFFF;stroke:#09a59a;stroke-width:8.3216;stroke-linejoin:round;}
	.st41{fill:#FFFFFF;stroke:#09a59a;stroke-width:8.3216;stroke-linejoin:bevel;}
	.st42{fill:none;stroke:#09a59a;stroke-width:8.3216;stroke-dasharray:8.3264,8.3264;}
	.st43{fill:none;stroke:#09a59a;stroke-width:8.3216;stroke-dasharray:8.5535,8.5535;}
	.st44{fill:#00bfb2;stroke:#09a59a;stroke-width:8.3216;stroke-linejoin:bevel;}
	.st45{fill:none;stroke:#09a59a;stroke-width:8.3216;stroke-dasharray:8.5104,8.5104;}
	.st46{fill:none;stroke:#09a59a;stroke-width:8.3216;stroke-dasharray:8.4012,8.4012;}
	.st47{fill:none;stroke:#09a59a;stroke-width:8.3216;stroke-dasharray:7.9763,7.9763;}
</style>
<g id="Layer_2">
	<g class="st0">
		<rect x="17.4" y="-18.5" class="st1" width="208" height="208"/>
	</g>
</g>
<g id="Layer_3">
</g>
<g id="Layer_4">
	<g>
		<line class="st5" x1="211.2" y1="90.5" x2="211.2" y2="140.7"/>
		<path class="st5" d="M31,140.7V26.5c0-3.4,2.8-6.2,6.2-6.2h89.5"/>
		<rect x="44.1" y="33.4" class="st9" width="154" height="94.1"/>
		<g>
			<path class="st5" d="M219.5,4.2h-73.2c-3.5,0-6.3,3.3-6.3,7.3V71c0,4,2.8,7.3,6.3,7.3h11.2v14l16.5-14h45.5
				c3.5,0,6.3-3.3,6.3-7.3V11.4C225.8,7.4,223,4.2,219.5,4.2z"/>
			<polygon class="st6" points="202.5,39.2 187.1,48.1 171.6,57 171.6,39.2 171.6,21.3 187.1,30.3 			"/>
		</g>
		<g>
			<path class="st17" d="M50.7,137.7v-10.1c0-5.7,5.2-10.4,11.7-10.4h51.5c6.5,0,11.7,4.6,11.7,10.4v10.1"/>
			<polygon class="st5" points="97.8,117.4 87.9,123 78.1,117.4 78.1,95.8 87.9,95.8 97.8,95.8 			"/>
			<path class="st5" d="M111.2,64.1v22.1c0,12.7-10.3,20.9-23,20.9l0,0c-12.7,0-23-8.1-23-20.9V64.1"/>
			<path class="st5" d="M77.2,43.4c-4.2,0-8,2.2-10.1,5.5h-4.2c-5.2,0-9.4,4.2-9.4,9.4v18.3l11.1,15.4V72.1c0-3.7,3-6.6,6.6-6.6H75
				h28.1h6.1c6.7,0,12.1-5.4,12.1-12.1v-9.9H77.2z"/>
			<line class="st8" x1="87.5" y1="124.5" x2="87.5" y2="137.7"/>
		</g>
		<path class="st5" d="M4.2,140.2v11.1c0,0,8.1,6,14,6h74.4h57H224c5.9,0,14-6,14-6v-11.1H4.2z"/>
	</g>
</g>
</svg>
