<svg id="Layer_1" data-name="Layer 1" xmlns="http://www.w3.org/2000/svg" viewBox="100 0 200 400"><defs><style>.cls-1{fill:#ffaf82;}.cls-2{fill:#fca377;}.cls-3{fill:#7c411e;}.cls-4{fill:#2a2a2a;}.cls-5{fill:#cc4100;}.cls-6{fill:#434343;}.cls-7{fill:#6b6b6b;}.cls-8{fill:#83433b;}.cls-9{fill:#ce846f;}.cls-10{fill:#af3302;}.cls-11{fill:#f2f2f2;}.cls-12{fill:#fff;}</style></defs><path class="cls-1" d="M219.55,97.84l-19.39,16.23-.74-2.06,0,2.06L180,97.84a11.07,11.07,0,0,0,7.35-3.78,8.38,8.38,0,0,0,1.44-2.14c1.76-3.35,1.91-7.47,1.72-10.55-.08-.82-.16-1.56-.24-2.18a.49.49,0,0,1,0-.23c-.23-1.33-.42-2.14-.42-2.14l9.65-2.61v-.16l.27.08.31-.08,0,.16,9.69,2.61s-.16.66-.35,1.71v.15c-.12.67-.23,1.48-.31,2.42a20.52,20.52,0,0,0,1.36,10.24,10.12,10.12,0,0,0,1.71,2.72A11.2,11.2,0,0,0,219.55,97.84Z"/><path class="cls-2" d="M209.62,78.45c-.08,0-.15,0-.23.08-3.54,1.17-10.16,2.49-19.12.43a.49.49,0,0,1-.23,0l.27.27c.08.62.16,1.36.24,2.18,4,3.19,11.13,6.81,18.53-.27Z"/><path class="cls-1" d="M237,108.94c-.2-3.28-.5-5.21-.5-5.21l-.63-.54c-.54-.31-1.33-.76-2.29-1.28l.06-.89-.4-.24a51.24,51.24,0,0,0-15.6-5.65,30.11,30.11,0,0,0-5.71-1.06,44.1,44.1,0,0,0-12.43,1.7,45.34,45.34,0,0,0-11.21-1.67,6.18,6.18,0,0,0-.89,0H187a49.56,49.56,0,0,0-19.24,5.43l-.4.22,0,1.28c-2.94,1.53-4.88,2.72-4.88,2.72s-.26,1.81-.44,4.94a90.14,90.14,0,0,0,.18,11.84,81.28,81.28,0,0,0,2.29,13.5,64.16,64.16,0,0,0,6.41,15.75,134.15,134.15,0,0,1,3.58,15.77,94.93,94.93,0,0,1,1.1,9.74c.12,1.91.21,3.82.21,5.76,0,0,23.79,9.81,47.31,0,0-1.85.09-3.7.21-5.52a123.29,123.29,0,0,1,1.88-13.95,121.23,121.23,0,0,1,2.8-11.8,64.25,64.25,0,0,0,6.29-15.36,78.4,78.4,0,0,0,2.39-13.47A97.59,97.59,0,0,0,237,108.94Z"/><path class="cls-1" d="M216.16,60.62c0,.74,0,1.52-.08,2.3a24.94,24.94,0,0,1-6.46,15.53l-.23.23A13.82,13.82,0,0,1,199.62,83a13.61,13.61,0,0,1-9.31-3.85l-.27-.27c-4.2-4-7-10.75-7-18.3,0-1.24,0-9,0-14,.12-.55,1.44-5.65,10.55-7.67l2.92-.39a12.54,12.54,0,0,1,1.33-.27c.58,0,1.12-.12,1.75-.12s1.17.08,1.75.12a12.36,12.36,0,0,1,1.32.27l2.92.39c7.79,1.75,9.93,5.72,10.44,7.16V58C216.12,58.83,216.16,59.73,216.16,60.62Z"/><path class="cls-2" d="M180.55,55.49a7.66,7.66,0,0,0-1.23,4.3c0,3.4,1.93,6.16,4.31,6.16V57C182.59,53.22,180.59,55.44,180.55,55.49Z"/><path class="cls-2" d="M218.54,55.49a7.74,7.74,0,0,1,1.23,4.3c0,3.4-1.93,6.16-4.31,6.16V57C216.5,53.22,218.5,55.44,218.54,55.49Z"/><path class="cls-3" d="M183.54,56.11a1.87,1.87,0,0,0,.09.19,2,2,0,0,1,0-.25Z"/><path class="cls-4" d="M216.06,55.79a37.72,37.72,0,0,0,1.1-5.59c.4-4,.57-8.78-1.32-11.58C212.58,33.8,206,31,200.4,30.5c-6.12-.53-11.29,2.68-15.81,6.43A8.81,8.81,0,0,0,181.46,44h-.05a28.66,28.66,0,0,0,.49,5.81,14.64,14.64,0,0,0,.4,2.54A25.1,25.1,0,0,0,183.61,56a7.82,7.82,0,0,1,.88-4.44h0c1.91-3,3.55-6.87,2.66-10,2.89,8.07,15.28,4.44,23.16,6.18.26.2,5.94,4.58,4.39,10.76A22.79,22.79,0,0,0,216.06,55.79Z"/><path class="cls-1" d="M186,311.47a30.54,30.54,0,0,0-.54-11.47l0-.07c-.17-.54-.24-1-.38-1.57a.94.94,0,0,1,0-.16,31.61,31.61,0,0,1-.85-11.87,23.6,23.6,0,0,0,3.37-10.6l-.12,0a8.39,8.39,0,0,0,.24-1.13l2.52-26h0c.39-2.62.77-5.23,1.12-7.79a48,48,0,0,0,.54-9.24h0c-10.39-11.88-22.63-10.35-25.58-9.76a135.77,135.77,0,0,0-2.74,22.12c0,.52,0,1.05-.07,1.58-.08,2.25-.1,3.66-.1,3.86a58.26,58.26,0,0,0,.75,9.76c.68,4.09,1.55,8.37,3.91,11.71a10.71,10.71,0,0,0-.35,1.63,10,10,0,0,0,1.94,7.05c-.55,5.32-3.63,11.48-4.74,15.67-2.62,9.9-2.15,19.89-.64,30,1.4,9.25,3.95,18.57,6.39,27.64,1,3.71,1.44,6.53,5.88,6.59,4.6.07,4.16-3.37,4-7.08-.38-7.2-2.16-13.78-.58-21C181.39,324.44,184.86,318.58,186,311.47Z"/><path class="cls-1" d="M214.74,313.41a30.34,30.34,0,0,1,.21-11.49l0-.06c.15-.55.21-1.05.33-1.58a1.24,1.24,0,0,0,0-.16,31.38,31.38,0,0,0,.5-11.9,23.53,23.53,0,0,1-3.68-10.49l.12,0c-.09-.37-.21-.73-.27-1.11l-3.27-26h0c-.47-2.61-.93-5.21-1.35-7.76a48.44,48.44,0,0,1-.81-9.21h0c10-12.18,22.32-11,25.29-10.51a134.91,134.91,0,0,1,3.38,22c0,.53.08,1.05.11,1.58.16,2.25.21,3.65.22,3.85a58.93,58.93,0,0,1-.47,9.78c-.56,4.11-1.31,8.41-3.57,11.82a9.59,9.59,0,0,1,.4,1.62,10,10,0,0,1-1.74,7.11c.72,5.3,4,11.37,5.2,15.52,2.91,9.82,2.73,19.82,1.51,29.94-1.13,9.29-3.41,18.68-5.59,27.81-.89,3.74-1.24,6.57-5.68,6.76-4.6.2-4.25-3.25-4.17-7,.16-7.21,1.76-13.84,0-21C219.69,326.23,216,320.48,214.74,313.41Z"/><path class="cls-4" d="M223.55,181.5l.13-.28c-6.81,3-17.42,3.3-22.52,3.25v-.07s-.55,0-1.45,0-1.46,0-1.46,0v.07c-5,.05-15.16-.26-22-3l0,0c-2.77,4.55-8.77,28.77-8.77,28.77h0c-3.07,16.46-5.6,36.11-3.4,48.86,0,0,17.14-.29,24.86,2.12,0,0,5.39-28.39,7.79-31.37l2.94-.67,2.93.67c2.41,3,7.8,31.37,7.8,31.37,7.71-2.41,24.86-2.12,24.86-2.12,2.5-14.56-1.14-38.1-4.73-55.63C228.58,196,225.37,184.49,223.55,181.5Z"/><path class="cls-5" d="M234.35,134.21A64.46,64.46,0,0,1,228,149.77s-1.46,4.77-2.8,11.57a123,123,0,0,0-1.88,13.95c-.12,1.82-.21,3.67-.21,5.51V181c-23.52,9.81-47.31,0-47.31,0v-.24c0-1.93-.09-3.84-.21-5.75-.24-3.31-.62-6.56-1.1-9.51a132.92,132.92,0,0,0-3.58-15.77,63.93,63.93,0,0,1-6.44-16l0,0C169.3,130.12,183,128,172,97.18a36.82,36.82,0,0,1,4.92-1.85,2.1,2.1,0,0,1,.33.12c.66-.18,1.28-.3,1.91-.44.3.77.66,1.64,1.1,2.56a2.48,2.48,0,0,0,.21.39l0,0c2.45,4.89,7.13,11.24,15.29,12.85a22.33,22.33,0,0,0,4,.38,20.78,20.78,0,0,0,3.87-.35h0c8.32-1.58,13.06-8.05,15.51-13,.06-.09.09-.21.15-.3.41-.89.77-1.7,1.07-2.44l.39-.12c.59.14,1.22.32,1.81.5a34.49,34.49,0,0,1,3.73,1.37c-10.93,32.62,3,33.87,7.93,37.3A0,0,0,0,0,234.35,134.21Z"/><path class="cls-1" d="M167.75,99.51l0,.1S155.51,103,153.41,120.4l-.06,0c-.54,8,.78,16.33,1.24,24.13.29,4.87.88,9.87.62,14.73s-2.05,9.17-3,13.91a99.08,99.08,0,0,0-1.72,18.12l0,0s0,.14,0,.38c-.05,3.32-.05,6.66,0,10.09,0,1.84.21,4.08.4,6.4a68.14,68.14,0,0,1-1,10.63c-3.26,2.11-7.19,5.51-6.16,10,.74,3.21,7.21,6.72,10.64,6.06,5.37-1.05,6.66-10,3.89-14.55.89-7.05,2.62-19,5.17-28.23h0c2.26-5.81,4.4-11.91,3.87-17.69-.4-4.25-1.15-8.34-1.59-12.47A48.47,48.47,0,0,0,167,148c5.28-8.83,3.47-20.37,3.47-20.37l.83-12.05C171.25,109.7,170.5,103.16,167.75,99.51ZM149.85,219c-.44.26-.9.55-1.38.9l1.41-1.09Z"/><path class="cls-1" d="M250.22,219.9a68.16,68.16,0,0,1-1-10.64c.19-2.31.38-4.56.4-6.4,0-3.42,0-6.76,0-10.09,0-.23,0-.38,0-.38l0,0a99.06,99.06,0,0,0-1.72-18.11c-1-4.75-2.77-9.12-3-13.91s.33-9.86.62-14.73c.46-7.88,1.81-16.34,1.22-24.37-2.09-17.13-14-20.65-14.28-20.73-2.83,3.63-3.6,10.24-3.62,16.18l.83,12s-1.81,11.55,3.47,20.38a48.47,48.47,0,0,0,1.27,13.9c-.44,4.13-1.19,8.22-1.59,12.47-.53,5.77,1.61,11.88,3.87,17.69h0c2.55,9.24,4.28,21.18,5.17,28.23-2.77,4.53-1.48,13.5,3.89,14.54,3.43.67,9.9-2.85,10.64-6.06C257.41,225.41,253.48,222,250.22,219.9Zm0,.23a1.29,1.29,0,0,0,0-.19l1.42,1.09C251.16,220.68,250.7,220.39,250.26,220.13Z"/><path class="cls-6" d="M264.35,227.92a13.85,13.85,0,1,1-13.85-13.85A13.85,13.85,0,0,1,264.35,227.92Z"/><path class="cls-7" d="M257.24,227.92a6.74,6.74,0,1,1-6.74-6.74A6.74,6.74,0,0,1,257.24,227.92Z"/><path class="cls-6" d="M163.35,227.92a13.85,13.85,0,1,1-13.85-13.85A13.85,13.85,0,0,1,163.35,227.92Z"/><path class="cls-7" d="M156.24,227.92a6.74,6.74,0,1,1-6.74-6.74A6.74,6.74,0,0,1,156.24,227.92Z"/><ellipse class="cls-8" cx="192.26" cy="63.64" rx="1.54" ry="2.66"/><ellipse class="cls-8" cx="208.72" cy="63.64" rx="1.54" ry="2.66"/><path class="cls-8" d="M187,59.47c1.44-3.66,6.06-3,9.13-2.71,1.56.17,1.19,2.56-.36,2.4-1.36-.14-2.7-.37-4.06-.52-1.62-.18-2.91.59-4.31,1.24A.32.32,0,0,1,187,59.47Z"/><path class="cls-8" d="M213.12,59.51c-1.3-3.71-5.94-3.28-9-3-1.56.11-1.28,2.51.27,2.41,1.36-.09,2.72-.27,4.08-.37,1.62-.11,2.88.7,4.26,1.4C213,60,213.2,59.75,213.12,59.51Z"/><path class="cls-9" d="M200.59,58.76c.06-.19.35-.08.33.1a36.19,36.19,0,0,0-.38,4.28,2.67,2.67,0,0,0,1.17,2.29,1.52,1.52,0,0,1,.6.63c.49,1.1.2,2.39-1.14,2.56a.23.23,0,0,1-.15-.41c.75-.37,1-1.09.62-2.16-.26-.27-.63-.46-.9-.73a2.92,2.92,0,0,1-.64-1.42A10.46,10.46,0,0,1,200.59,58.76Z"/><path class="cls-5" d="M182.52,357.51l-.29,5-.23,4.1a3,3,0,0,1-2.87,2.95H148.32a6.35,6.35,0,0,1-.64-1.92,3,3,0,0,1,.64-2.6c1.57-1.72,14.13-4.34,15.82-7.42s1.67-6.88,4.16-6.88,2.82,5.43,5,5.43c1.56,0,5.77-.09,8-.14A1.33,1.33,0,0,1,182.52,357.51Z"/><path class="cls-10" d="M182.23,362.51l-.23,4.1a3,3,0,0,1-2.87,2.95H148.32a6.35,6.35,0,0,1-.64-1.92c4-.11,19.41-.43,21.21-.43,2.14,0,4-1.9,6-3.62C176.16,362.56,179.65,362.44,182.23,362.51Z"/><rect class="cls-11" x="164.12" y="357.7" width="0.54" height="4.21" transform="translate(-193.55 191.38) rotate(-40.25)"/><polygon class="cls-11" points="162.79 362.62 161.14 359.46 161.62 359.21 163.27 362.37 162.79 362.62"/><rect class="cls-11" x="165.75" y="355.47" width="0.54" height="3.7" transform="translate(-227.27 333.54) rotate(-61.62)"/><path class="cls-5" d="M219,357l.29,5,.24,4.1a3,3,0,0,0,2.86,2.95h30.81a6.21,6.21,0,0,0,.65-1.92,3,3,0,0,0-.65-2.6c-1.57-1.72-14.12-4.34-15.81-7.42s-1.67-6.87-4.16-6.87-2.82,5.42-5,5.42c-1.56,0-5.77-.09-8-.14A1.35,1.35,0,0,0,219,357Z"/><path class="cls-10" d="M219.24,362l.24,4.1a3,3,0,0,0,2.86,2.95h30.81a6.21,6.21,0,0,0,.65-1.92c-4-.11-19.41-.43-21.21-.43-2.14,0-4-1.9-6-3.62C225.32,362.05,221.82,361.93,219.24,362Z"/><rect class="cls-11" x="234.98" y="359.03" width="4.21" height="0.54" transform="translate(-190.36 308.28) rotate(-49.77)"/><polygon class="cls-11" points="238.69 362.11 238.2 361.86 239.85 358.7 240.34 358.95 238.69 362.11"/><rect class="cls-11" x="233.6" y="356.54" width="3.7" height="0.54" transform="translate(-141.11 154.44) rotate(-28.33)"/><path class="cls-8" d="M198.18,76.62a6.6,6.6,0,0,0,5.11-.64,7.51,7.51,0,0,0,3.12-3.59c-4.08,1.07-8.48.55-12.7,0C194.79,74.11,196.05,75.94,198.18,76.62Z"/><path class="cls-12" d="M204.58,72.89a23.09,23.09,0,0,1-8.57-.07,3.54,3.54,0,0,0,2.37,1.79,10.18,10.18,0,0,0,3.07.17,4.34,4.34,0,0,0,1.43-.24A5,5,0,0,0,204.58,72.89Z"/><path class="cls-9" d="M194.12,71.23c-.41.12-1.08.73-.74,1.19a.19.19,0,0,0,.26,0c.14-.14.12-.24.17-.42a1.29,1.29,0,0,1,.41-.59C194.3,71.37,194.24,71.2,194.12,71.23Z"/><path class="cls-9" d="M206.85,72.43a2.39,2.39,0,0,0-.85-.85.2.2,0,0,0-.3.24l.21.4c.09.16,0,.31.07.48a5,5,0,0,0,.24.94.24.24,0,0,0,.41,0A1.31,1.31,0,0,0,206.85,72.43Z"/><path class="cls-4" d="M199.69,86.05c-4.22,0-7.71-2.82-9.3-4.81l-.48-.6-.14-.76c-.22-1.25-1.17-7.69,1.67-11.07A5.75,5.75,0,0,1,196,66.72h9.19l.34.08a6.56,6.56,0,0,1,3.92,3c1.52,2.49,1.74,5.94.65,10.25l-.06.19c-.33,1-1.72,3.55-7.53,5.34A9.68,9.68,0,0,1,199.69,86.05Zm-4.13-8c.93.9,3,2.55,5.18,1.88a9.64,9.64,0,0,0,3.65-1.75c.78-3.43.18-5-.26-5.42H196C195.53,73.32,195.29,75.66,195.56,78Zm9,0Z"/></svg>