<svg id="Layer_1" data-name="Layer 1" xmlns="http://www.w3.org/2000/svg" viewBox="80 0 240 400"><defs><style>.cls-1{fill:#0a2e89;}.cls-2{fill:#ffaf82;}.cls-3{fill:#2a2a2a;}.cls-4{fill:#7d7d7d;}.cls-5{fill:#fca377;}.cls-6{fill:#082fa2;}.cls-7{fill:#333;}.cls-8{fill:#83433b;}.cls-9{fill:#ce846f;}.cls-10{fill:#fff;}.cls-11{fill:#0a2e87;}.cls-12{fill:#e4e4e4;}</style></defs><path class="cls-1" d="M233.56,129.13s-4,18.45-.94,31.36l10.26-4Z"/><path class="cls-1" d="M163.56,130.4s4.78,18.27,2.2,31.3l-10.42-3.59Z"/><path class="cls-2" d="M211.88,268.07l7.68,20,2.52,10.45a143.44,143.44,0,0,0,6.34,29L238.17,357h11.37l-.47-27.32c-.27-15.73-1.33-31.31-6.65-46.11h0L242,266.53Z"/><path class="cls-2" d="M186.22,268.07l-7.68,20-3.61,20.16a49.3,49.3,0,0,1-2.18,10L159.93,357H148.57l.73-42.9a49.7,49.7,0,0,1,2.91-15.87l3-14.66.89-17.06Z"/><polygon class="cls-3" points="243.4 268.38 231.87 200.34 230.81 196.56 228.47 187.52 199.14 188.98 169.82 187.52 167.03 196.56 165.52 200.34 154.89 268.38 186.14 273.48 187.98 266.53 195.36 238.68 199.14 224.38 212.15 273.48 243.4 268.38"/><rect class="cls-4" x="83.52" y="235.51" width="232.96" height="8.09"/><path class="cls-2" d="M142.92,160.11v12.46h0a50.45,50.45,0,0,0-2.35,19.25l5.49,32.76-3.45,2a7.74,7.74,0,0,0-3.83,7.9l1.16,7.63h10.49v-5l-6.23-.22L164,235.51v-1.27a9.87,9.87,0,0,0-3-7.1L158.73,225l4.92-37.63-.76-12.63L164,163.17Z"/><path class="cls-2" d="M254.37,160.11v8a27.83,27.83,0,0,0,1.37,8.64h0a27.76,27.76,0,0,1,1.3,10.63l-5.36,37.17,1.51.85a11,11,0,0,1,5.44,11.23l-.83,5.41h-5.46a5,5,0,0,1-5-5h0l6.23-.22-19.78-1.31v-1A10.42,10.42,0,0,1,237,227l2-1.95-4.92-37.63.77-12.63-1.1-11.59Z"/><path class="cls-1" d="M163.13,102.43h0a23,23,0,0,0-15.95,23.69l0,.63L141,162l24.77,3.49Z"/><path class="cls-1" d="M234.76,102.43h0a23,23,0,0,1,16,23.69l-.05.63L256.92,162l-24.76,3.49Z"/><path class="cls-3" d="M177.05,50.3l-2.75,7a.5.5,0,0,0,.46.68h.54a.49.49,0,0,1,.49.43l2,15.8a.45.45,0,0,0,.12.27L188.3,86.16a.49.49,0,0,0,.74,0l2.44-2.8a.49.49,0,0,1,.36-.17l16.3-.53a.5.5,0,0,1,.35.12l2.79,2.52a.49.49,0,0,0,.67,0l8.39-7.78a.48.48,0,0,0,.15-.3L223,57.85a.5.5,0,0,1,.53-.43h0a.49.49,0,0,0,.49-.7l-2.44-5.34a.55.55,0,0,0-.13-.17l-11.37-9.76a.44.44,0,0,0-.3-.12l-21-1.29a.48.48,0,0,0-.36.12l-11.23,10A.41.41,0,0,0,177.05,50.3Z"/><rect class="cls-2" x="189.58" y="82.6" width="21.42" height="25.5"/><path class="cls-5" d="M206.45,92.6H194.14c-2.52,0-4.56-5.42-4.56-11h0c0-5.59,2-10.12,4.56-10.12h12.31C209,71.48,211,76,211,81.6h0C211,87.18,209,92.6,206.45,92.6Z"/><path class="cls-5" d="M219.19,71.23h0a3.73,3.73,0,0,1-5-3.25,18.49,18.49,0,0,1,.21-3.8,3.74,3.74,0,0,1,4.94-2.91h0a3.75,3.75,0,0,1,2.49,3.7l-.14,2.93A3.72,3.72,0,0,1,219.19,71.23Z"/><path class="cls-5" d="M181.39,71.23h0a3.73,3.73,0,0,0,5-3.25,18.49,18.49,0,0,0-.21-3.8,3.74,3.74,0,0,0-4.94-2.91h0a3.73,3.73,0,0,0-2.48,3.7l.13,2.93A3.74,3.74,0,0,0,181.39,71.23Z"/><path class="cls-6" d="M234.59,130.83l.18-29.5L211,93.87l-.75,2.22a11.78,11.78,0,0,1-6.35,7h0a10,10,0,0,1-7.35.32h0a10,10,0,0,1-6.49-7.31l-.48-2.2-24.68,6.87a2.7,2.7,0,0,0-1.81,2.39l-.17,27.7,9.51,45.46-3.25,6.47a6.92,6.92,0,0,0,3.43,7.61h0a6.89,6.89,0,0,0,3,.84l23.34,1,23.34-1a6.89,6.89,0,0,0,3-.84h0a6.92,6.92,0,0,0,3.43-7.61l-5.05-6.47Z"/><path class="cls-2" d="M157.15,248.51l-4,.81c-5.49,1.12-12.21-1.76-13.25-7.25l.87-3.39h24.37A10,10,0,0,1,157.15,248.51Z"/><path class="cls-2" d="M241,248.51l4,.81c5.48,1.12,11.84-1.76,12.88-7.25l-.51-3.39H232.93A10,10,0,0,0,241,248.51Z"/><rect class="cls-7" x="295.43" y="211.25" width="11.26" height="56.6"/><rect class="cls-7" x="280.18" y="198.9" width="11.83" height="81.3"/><rect class="cls-7" x="92.86" y="211.25" width="11.26" height="56.6"/><rect class="cls-7" x="107.55" y="198.9" width="11.83" height="81.3"/><path class="cls-2" d="M216.84,50.19V70.83a12.28,12.28,0,0,1-2.66,7.62L208,86.22A9.67,9.67,0,0,1,204.56,89a9.88,9.88,0,0,1-12-2.76l-6.18-7.77a12.28,12.28,0,0,1-2.66-7.62V53.25l16.57-5.39V44.8Z"/><path class="cls-3" d="M176.28,51.43l14.8,10.41a1,1,0,0,0,1.56-.81V53.18a1,1,0,0,1,1.27-1l13.61,4a1,1,0,0,0,1.16-1.4l-1.78-3.55a1,1,0,0,1,1.15-1.4l14.4,4a1,1,0,0,0,1.07-1.52L210,33.2a1,1,0,0,0-.8-.42H195.06a1,1,0,0,0-.66.25l-8.68,7.86a1.05,1.05,0,0,1-.51.24l-5.77.93a1,1,0,0,0-.3,1.86h0a1,1,0,0,1,.35,1.46L176.05,50A1,1,0,0,0,176.28,51.43Z"/><ellipse class="cls-8" cx="194.19" cy="67.78" rx="1.34" ry="2.31"/><ellipse class="cls-8" cx="208.46" cy="67.78" rx="1.34" ry="2.31"/><path class="cls-8" d="M189.6,64.17c1.25-3.17,5.25-2.65,7.92-2.35,1.34.15,1,2.22-.32,2.08-1.17-.12-2.34-.32-3.52-.45A7,7,0,0,0,190,64.52.27.27,0,0,1,189.6,64.17Z"/><path class="cls-8" d="M212.28,64.21c-1.12-3.22-5.15-2.85-7.82-2.65-1.35.09-1.11,2.17.23,2.09,1.19-.08,2.36-.24,3.54-.32a6.9,6.9,0,0,1,3.69,1.21C212.14,64.66,212.35,64.41,212.28,64.21Z"/><path class="cls-9" d="M202.29,63.55c.06-.16.31-.07.29.09a30.78,30.78,0,0,0-.32,3.71,2.31,2.31,0,0,0,1,2,1.4,1.4,0,0,1,.53.55c.43.94.17,2.07-1,2.21a.2.2,0,0,1-.13-.35c.65-.32.83-.94.54-1.87-.23-.24-.54-.4-.79-.64a2.55,2.55,0,0,1-.55-1.23A9.27,9.27,0,0,1,202.29,63.55Z"/><path class="cls-8" d="M198.41,81.35a8.07,8.07,0,0,0,6.25-.78,9.2,9.2,0,0,0,3.82-4.39c-5,1.3-10.38.67-15.56,0C194.25,78.29,195.79,80.52,198.41,81.35Z"/><path class="cls-10" d="M206.24,76.78a27.83,27.83,0,0,1-10.49-.08,4.31,4.31,0,0,0,2.9,2.2,12.74,12.74,0,0,0,3.75.2,4.88,4.88,0,0,0,1.75-.3A5.94,5.94,0,0,0,206.24,76.78Z"/><path class="cls-9" d="M193.43,74.76c-.5.15-1.33.89-.91,1.45a.22.22,0,0,0,.32,0c.17-.16.15-.29.21-.51a1.62,1.62,0,0,1,.5-.72C193.65,74.93,193.58,74.72,193.43,74.76Z"/><path class="cls-9" d="M209,76.23a2.88,2.88,0,0,0-1-1,.23.23,0,0,0-.35.29c.07.17.16.32.25.49s0,.37.08.58a6.25,6.25,0,0,0,.29,1.15.29.29,0,0,0,.5,0A1.55,1.55,0,0,0,209,76.23Z"/><path class="cls-6" d="M162.62,354.66l-.3,5.21-.25,4.27a3.11,3.11,0,0,1-3,3.08H127a6.73,6.73,0,0,1-.67-2,3.16,3.16,0,0,1,.67-2.71c1.64-1.79,14.72-4.53,16.49-7.74s1.74-7.16,4.33-7.16,2.94,5.66,5.18,5.66c1.62,0,6-.1,8.31-.15A1.38,1.38,0,0,1,162.62,354.66Z"/><path class="cls-11" d="M162.32,359.87l-.25,4.27a3.11,3.11,0,0,1-3,3.08H127a6.73,6.73,0,0,1-.67-2c4.22-.12,20.24-.45,22.11-.45,2.23,0,4.13-2,6.28-3.77C156,359.92,159.63,359.8,162.32,359.87Z"/><rect class="cls-12" x="143.44" y="354.86" width="0.57" height="4.39" transform="translate(-196.66 177.38) rotate(-40.25)"/><polygon class="cls-12" points="142.06 359.99 140.34 356.7 140.84 356.44 142.56 359.73 142.06 359.99"/><rect class="cls-12" x="145.14" y="352.54" width="0.57" height="3.86" transform="translate(-235.56 313.92) rotate(-61.62)"/><path class="cls-6" d="M235.34,353.87l.3,5.21.25,4.27a3.12,3.12,0,0,0,3,3.08H271a6.72,6.72,0,0,0,.67-2,3.16,3.16,0,0,0-.67-2.71c-1.64-1.79-14.72-4.53-16.49-7.73s-1.74-7.17-4.33-7.17-2.94,5.66-5.18,5.66c-1.62,0-6-.1-8.31-.15A1.39,1.39,0,0,0,235.34,353.87Z"/><path class="cls-11" d="M235.64,359.08l.25,4.27a3.12,3.12,0,0,0,3,3.08H271a6.72,6.72,0,0,0,.67-2c-4.21-.11-20.24-.45-22.11-.45-2.23,0-4.13-2-6.28-3.77C242,359.12,238.33,359,235.64,359.08Z"/><rect class="cls-12" x="252.04" y="355.98" width="4.39" height="0.57" transform="translate(-181.96 320.3) rotate(-49.77)"/><polygon class="cls-12" points="255.91 359.19 255.4 358.93 257.12 355.64 257.63 355.9 255.91 359.19"/><rect class="cls-12" x="250.61" y="353.39" width="3.86" height="0.57" transform="translate(-137.57 162.17) rotate(-28.33)"/><path class="cls-3" d="M199.84,92.6c-6,0-10.14-5.12-10.34-5.38l-.5-.62-.14-.78c-.25-1.41-1.32-8.63,1.83-12.38a6.26,6.26,0,0,1,4.95-2.27H206.1l.35.08a7.18,7.18,0,0,1,4.27,3.34c1.68,2.77,1.92,6.62.7,11.45l-.06.2c-.36,1.11-1.9,3.89-8.39,5.88A10.69,10.69,0,0,1,199.84,92.6Zm-5-8.71c1.06,1,3.62,3.14,6.33,2.31,2.91-.89,4-1.81,4.37-2.15,1-4.35.15-6.17-.47-6.69h-9.42a.41.41,0,0,0-.17,0C194.84,77.82,194.46,80.84,194.83,83.89Z"/><path class="cls-1" d="M147.49,126.75s-6.68,17.67-5.49,30.89l10.74-2.46Z"/><path class="cls-1" d="M250.68,126.75s6.68,17.67,5.49,30.89l-10.73-2.46Z"/></svg>