<svg id="Layer_1" data-name="Layer 1" xmlns="http://www.w3.org/2000/svg" viewBox="20 0 360 400"><defs><style>.cls-1{fill:#ffaf82;}.cls-2{fill:#2a2a2a;}.cls-3{fill:none;}.cls-4{fill:#f4ae7a;}.cls-5{fill:#f9a073;}.cls-6{fill:#ffc999;}.cls-7{fill:#eea886;}.cls-8{fill:#fca377;}.cls-9{fill:#077c74;}.cls-10{fill:#83433b;}.cls-11{fill:#ce846f;}.cls-12{fill:#fff;}.cls-13{fill:#06635a;}.cls-14{fill:#e4e4e4;}.cls-15{fill:#7d7d7d;}.cls-16{fill:#333;}</style></defs><path class="cls-1" d="M219.53,100.28l-.7-1s0,0,0,0a5,5,0,0,0-3.62-.65l-.49.07-.48.14a13.53,13.53,0,0,1-.63,7.71c.27-.84.29-1.44-.52-.84,0,0-.54-2.35-.54-2.39S210,103,209.94,103c-.22.29-4.32-2.91-4.92-2.69l-.35-.26-3.77-2.84a6.7,6.7,0,0,0-.21,1.22v0a1.1,1.1,0,0,0,0,.18l.23-.43a29.22,29.22,0,0,0,3,6.7,20.76,20.76,0,0,0,1.21,1.75c0,.28.09.56.14.85a9.71,9.71,0,0,0,4.7,3.38l.25.15a13.58,13.58,0,0,0,9.57,1l.15.48a24.24,24.24,0,0,0,1.38-5A36.64,36.64,0,0,0,219.53,100.28ZM209,113l-.07,0,.09,0Zm-34.31,44.48c-.26-3.05-.42-5.4-.48-6.4,0,.14-.09.29-.13.43l.1,0s.16,2.84.51,6.93l0,0-1.82,0s-7.77,24,5.37,23.89C176.39,176.18,175.24,164.52,174.64,157.52Z"/><path class="cls-1" d="M220.74,122.14a42.2,42.2,0,0,0,.55-14.61,24.24,24.24,0,0,1-1.38,5l-.15-.48a13.58,13.58,0,0,1-9.57-1l-.25-.15a9.71,9.71,0,0,1-4.7-3.38c-.05-.29-.1-.57-.14-.85a20.76,20.76,0,0,1-1.21-1.75,29.22,29.22,0,0,1-3-6.7l-.23.43h0c-.4,3.23-1.11,11.11-1.6,16.24l.29-.12c0,.08-.48,2.81-.71,4.14.1-.81.25-2.25.42-4-3.7,1.73-8.36,9.17-10.16,12.64a16.82,16.82,0,0,0-1.76,9.14,34.84,34.84,0,0,0-9.8,8.35,21.11,21.11,0,0,0-3.18,6.13c.06,1,.22,3.35.48,6.4.54,6.34,1.54,16.51,3.08,23,.16.67.33,1.31.5,1.9,10.53-.08,15.78-6,18.89-8.41l.18-.14c.35-.29.82-.74,1.27-1.2l0,0c.6-.6,1.16-1.2,1.37-1.43l.09-.1h0c3.56-4.46,13.92-14.91,12.91-21.68a0,0,0,0,0,0,0c-1.12-.75-2.3-1.43-3.51-2.08a77.24,77.24,0,0,0,10.29-21.14c-5.82,3.56-10.67,11.49-12.72,19.94C208,138.13,212.3,126.59,220.74,122.14Zm-22.12-3.07a2.74,2.74,0,0,1-.08.44C198.55,119.43,198.58,119.27,198.62,119.07ZM197.46,127a17.55,17.55,0,0,0-6.81,10.81c-.56.1-1.16.25-1.69.4A16.75,16.75,0,0,1,197.46,127Zm4.85,13.42a11.87,11.87,0,0,1-5.57,3.53l-.94-1.41c7-4.18,7.78-12.8,8.22-21.59C206.9,127.1,207.08,135.17,202.31,140.42Zm6.57-27.33.07,0h0Z"/><path class="cls-1" d="M203.87,59.34s.12.84.3,2c.46,3,1.28,8.47,1.42,8.83.21.51,8.73.15,8.73.15,1-1.59,2.4-3.84,2.58-5.67a26.64,26.64,0,0,0,.12-3.35c0-.49,0-.79,0-.79l-10-.92Z"/><path class="cls-2" d="M163.67,391.25c-2.32-1,1-9,.27-13.16s-14.46-39-14.46-45.16,3.62-16,3.1-19.88c-.23-1.68-2.49-6.62-5.2-13.31-3.43-8.47-7.56-19.73-9.13-30.69-1.56,11-5.69,22.22-9.12,30.69-2.71,6.69-5,11.63-5.2,13.31-.52,3.87,3.1,13.68,3.1,19.88s-13.69,41-14.46,45.16,2.59,12.13.26,13.16-7.58-4.55-12.22-2.22S88.78,394.67,89,392.6s10.37-6,14.5-10.89c3.1-18.33-.26-50.33-1-56.27S105.09,312,105.09,312s-1.25-6.37-2.24-14.69c-1-8.59-1.78-19.26-.6-27.12A203.78,203.78,0,0,1,110,239s15.15,1.56,28.26,2c13.12-.41,28.27-2,28.27-2a203.78,203.78,0,0,1,7.74,31.24c1.18,7.86.43,18.53-.6,27.12-1,8.32-2.24,14.69-2.24,14.69s3.36,7.48,2.58,13.42-4.13,37.94-1,56.27c4.13,4.9,19.35,9.8,19.62,11.87Z"/><path class="cls-2" d="M163.67,391.25c-2.32-1,1-9,.27-13.16s-14.46-39-14.46-45.16,3.62-16,3.1-19.88c-.23-1.68-2.49-6.62-5.2-13.31a29.07,29.07,0,0,0,4.46,1.07,36.72,36.72,0,0,0,18.35-1.62,16,16,0,0,0,3.47-1.86c-1,8.32-2.24,14.69-2.24,14.69s3.36,7.48,2.58,13.42-4.13,37.94-1,56.27c4.13,4.9,19.35,9.8,19.62,11.87Z"/><path class="cls-2" d="M86.16,392.16c-.26,2.07,9.8-.81,14.45-3.13s9.9,3.25,12.22,2.22-1-9-.26-13.16,14.46-39,14.46-45.16-3.62-16-3.1-19.88c.23-1.68,2.49-6.62,5.2-13.31a27.38,27.38,0,0,1-3.62.92,37.35,37.35,0,0,1-18.38-1.17,16.64,16.64,0,0,1-4.28-2.16c1,8.32,2.24,14.69,2.24,14.69s-3.36,7.48-2.59,13.42,4.14,37.94,1,56.27C99.41,386.61,86.42,390.09,86.16,392.16Z"/><path class="cls-2" d="M192.59,393.58l-28.92-2.33Z"/><line class="cls-3" x1="163.67" y1="391.25" x2="192.59" y2="393.58"/><polygon class="cls-4" points="195.81 171.49 198.41 171.91 198.4 171.91 195.81 171.49"/><path class="cls-4" d="M189.64,139.14l-.67-.43A3.36,3.36,0,0,0,189.64,139.14Z"/><path class="cls-1" d="M195.8,142.54a15.52,15.52,0,0,1-2.35,1.14l-.52-.6-.13-.14a18.88,18.88,0,0,0-3.16-2.8,3.73,3.73,0,0,1,.87.56,12.11,12.11,0,0,1,.14-2.89c.93-.18,1.75-.24,2,0S194.33,140.31,195.8,142.54Z"/><path class="cls-1" d="M199.35,114.74c0,.08-.48,2.81-.71,4.14.1-.81.25-2.25.42-4Z"/><path class="cls-1" d="M198.56,172.72v.16c-.16.13-.59.51-1.27,1C197.64,173.63,198.11,173.18,198.56,172.72Z"/><path class="cls-1" d="M200,171.26a20.6,20.6,0,0,1-1.39,1.62,1.23,1.23,0,0,0,0-.19C199.18,172.09,199.74,171.49,200,171.26Z"/><path class="cls-5" d="M220.53,134.7A60.51,60.51,0,0,1,213,149.45c-1.12-.75-2.3-1.43-3.51-2.08a77.24,77.24,0,0,0,10.29-21.14c-5.82,3.56-10.67,11.49-12.72,19.94.94-8,5.28-19.58,13.72-24a42.2,42.2,0,0,0,.55-14.61,36.64,36.64,0,0,0-1.76-7.25,27,27,0,0,1,2.1,4.06C226.31,115.67,222.76,128.51,220.53,134.7Z"/><path class="cls-4" d="M193.88,143.22l-.43-.54c-.28.11-.54.23-.83.32A6.79,6.79,0,0,0,193.88,143.22Z"/><path class="cls-6" d="M209,113l-.09,0,.07,0Z"/><path class="cls-1" d="M221.63,104.34a26.13,26.13,0,0,1-.34,3.19,24.24,24.24,0,0,1-1.38,5l-.15-.48a13.58,13.58,0,0,1-9.57-1l-.25-.15c4.37,1.29,7.89-2.17,7.15-2.33-5.74,2.74-10.1-1-12.4-5.74-.05-.94-.05-1.86,0-2.77a54.28,54.28,0,0,1,2.5-14,26.48,26.48,0,0,0,1.13-10.89c-.16-1.18-.43-3.48-1.32-4.63a10.81,10.81,0,0,0,1.19-1l0,0c1.68-1.2,3.7-2.85,4.18-4.24a33.3,33.3,0,0,1,1.6,4.08c2.21,6.86,4.34,14.18,6.06,21.13A47.08,47.08,0,0,1,221.63,104.34Z"/><path class="cls-5" d="M208.17,69.49a10.81,10.81,0,0,1-1.19,1,1.07,1.07,0,0,0-.14-.16C207.22,70.13,207.68,69.83,208.17,69.49Z"/><path class="cls-5" d="M204.67,100c0,.91,0,1.83,0,2.77a18.53,18.53,0,0,1-1.23-3.27c-.72-1.35-.4,2.54.43,5.36a29.22,29.22,0,0,1-3-6.7l-.23.43h0l0-.19v0a10.8,10.8,0,0,1,.1-1.74,36.7,36.7,0,0,1,1.54-4.5,63.19,63.19,0,0,0,3.27-9.51,35.83,35.83,0,0,0,.19-11.33,11.69,11.69,0,0,0,1.19-.79c.89,1.15,1.16,3.45,1.32,4.63a26.48,26.48,0,0,1-1.13,10.89A54.28,54.28,0,0,0,204.67,100Z"/><path class="cls-5" d="M207,70.53a11.69,11.69,0,0,1-1.19.79c0-.18,0-.27,0-.27s.44-.25,1.09-.68A1.07,1.07,0,0,1,207,70.53Z"/><path class="cls-5" d="M205.1,106.63a15.3,15.3,0,0,0,4.84,4.23c4.37,1.29,7.89-2.17,7.15-2.33-5.74,2.74-10.1-1-12.4-5.74A32.13,32.13,0,0,0,205.1,106.63Z"/><path class="cls-5" d="M205.1,106.63a20.76,20.76,0,0,1-1.21-1.75c-.83-2.82-1.15-6.71-.43-5.36a18.53,18.53,0,0,0,1.23,3.27A32.13,32.13,0,0,0,205.1,106.63Z"/><path class="cls-1" d="M209.94,110.86a9.71,9.71,0,0,1-4.7-3.38c-.05-.29-.1-.57-.14-.85A15.3,15.3,0,0,0,209.94,110.86Z"/><g id="very_big" data-name="very big"><path id="Shine" class="cls-1" d="M96.19,150.65s5.46,14.34,5.46,27.63l-.83,3.54h0c.3.9-19.73,6.37-27.1,2h0a60.82,60.82,0,0,1-16.52,1.42c-7.37-.31-23.13-2.25-31.48-14-.24-.34-.48-.69-.71-1.05a.06.06,0,0,1,0,0,5.38,5.38,0,0,1,1-4c-.29-7.39,3.15-14.61,7.27-20.85,3.95-6,8.42-12.16,12.8-17.88a28,28,0,0,1,6.76-6.54,27.21,27.21,0,0,1,7-2.46c4.38-1.12,6.52-2.12,9.7-3a25,25,0,0,1,4.67,4.74,12.41,12.41,0,0,1,1,1.88,10.7,10.7,0,0,1,.49,1.36,8.58,8.58,0,0,1-1.53,1.86,8.79,8.79,0,0,1-1,.79l-.49.3h0a13.58,13.58,0,0,1,.1,2.21c0,.3,0,.6,0,.9a10.85,10.85,0,0,1-3.38,0c0,.17,0,.34-.08.52l0,.15h0c0,.28-.1.56-.17.84s-.18.72-.29,1.07a8.57,8.57,0,0,1-2.17-.51,7.34,7.34,0,0,1-.86-.39,3.62,3.62,0,0,1-.43-.24l-.11.32c-.08.21-.16.43-.25.64s-.19.42-.29.62a7.72,7.72,0,0,1-3.11-.79,2.6,2.6,0,0,1-1-.89,6.89,6.89,0,0,1,.2-.82c.07-.23.16-.47.24-.72l-.56.33-1,.61a19.27,19.27,0,0,1-2.94,1.58,3.72,3.72,0,0,1-1.47.23,10,10,0,0,1-1.69-.23l-.13.24a35.51,35.51,0,0,0-3.62,10.74,62.45,62.45,0,0,0-.1,10.05,37.81,37.81,0,0,1,0,4.76c-.05.57-.12,1.14-.22,1.7l.2,0a14.61,14.61,0,0,1,2.2-.13l.38,0c2.76-2.91,6.59-5.57,10.59-5.93a16.83,16.83,0,0,1,9.13,1.83,34.78,34.78,0,0,1,11.43-5.91C87.13,148.19,91.89,147.86,96.19,150.65Z"/><g id="Shadow"><path class="cls-5" d="M60.34,129.62l-1,.61a2.55,2.55,0,0,1,.43-.69A.44.44,0,0,1,60.34,129.62Z"/><path class="cls-5" d="M61.77,130.86a13.76,13.76,0,0,0,.62-4.81,26.67,26.67,0,0,1-3.52.89,27.31,27.31,0,0,1-8.22.25,11.23,11.23,0,0,0,2.46,4.86l.13-.24a5.75,5.75,0,0,0,3.16,0,36.13,36.13,0,0,0,4.5-2.52c-.08.25-.17.49-.24.72h0v.05l0,.06s0,.11-.05.17h0c0,.06,0,.12,0,.18h0a1,1,0,0,0,0,.17h0l0,.16a2.6,2.6,0,0,0,1,.89,7.72,7.72,0,0,0,3.11.79c.1-.2.2-.41.29-.62A9.5,9.5,0,0,1,61.77,130.86Z"/><path class="cls-5" d="M66.57,130.29a31.38,31.38,0,0,0-.45-5.47c-.26,2.15-.92,6.22-.88,6.11.21.13.42.24.64.35h0l.17.08.07,0,.12,0,.08,0,.19.08a8.57,8.57,0,0,0,2.17.51c.11-.35.21-.71.29-1.07A9.75,9.75,0,0,1,66.57,130.29Z"/><path class="cls-5" d="M70.44,128.74a17.39,17.39,0,0,0-1.56-6.18,25.33,25.33,0,0,1,.42,6.06c0,.31,0,.6,0,.86a10.85,10.85,0,0,0,3.38,0c0-.3,0-.6,0-.9A10.73,10.73,0,0,1,70.44,128.74Z"/><path class="cls-5" d="M75.16,122.08A18.67,18.67,0,0,1,73.62,124a10.77,10.77,0,0,0-3.47-4.27,18.39,18.39,0,0,1,2.45,6.69l.49-.3h0l0,0,.21-.14,0,0,.23-.17.06,0,.17-.14.07-.05.22-.19a8.58,8.58,0,0,0,1.53-1.86A10.7,10.7,0,0,0,75.16,122.08Z"/><path class="cls-5" d="M54.93,132a10,10,0,0,1-1.69-.23l-.13.24a35.51,35.51,0,0,0-3.62,10.74,62.45,62.45,0,0,0-.1,10.05,37.81,37.81,0,0,1,0,4.76c-.05.57-.12,1.14-.22,1.7l.2,0c-.76,1.38-6.46,6.22-7.81,7.06,4.29-7.3,5-15.12,5.36-20.87a26.44,26.44,0,0,1,2.59-10.63c.63-1.23,1.9-3.82,3.38-4.19C54,130.36,54.62,131.08,54.93,132Z"/><path class="cls-5" d="M50.7,164.74c9.43,3.31,18.8,6.21,25.66-1.83-.47,3.64-3.64,6.42-7,7.62C62.71,173,55.31,169.74,50.7,164.74Z"/><path class="cls-5" d="M73.7,183.81a60.82,60.82,0,0,1-16.52,1.42c-7.37-.31-23.13-2.25-31.48-14,12.86,11.44,30.81,11.91,47.4,8.5C73.24,181.13,73.43,182.48,73.7,183.81Z"/><path class="cls-5" d="M101.42,179.27l-.63,2.71c-12-3.24-25.43-13.4-27.09-24.4C77.86,167.68,91.67,176.54,101.42,179.27Z"/><path class="cls-5" d="M45.36,180.76c7.3-6.23,19.71-5.88,27.55-3.69-9.74-1.47-20.24.61-25.27,6Z"/><path class="cls-5" d="M30,163.33c5.49,5.51,12.27,1.24,15.86-3.93,1.61-1.46-2.34,6.41-4.27,6.86C33.28,171.35,29,163.2,30,163.33Z"/><path class="cls-5" d="M74.1,159.71C69,157.2,62.64,158.57,58.79,161a16.66,16.66,0,0,1,14.76-3.36C74,158,73.83,159.13,74.1,159.71Z"/></g></g><polygon class="cls-1" points="150.25 116.19 147.57 124.17 147.57 125.06 151.94 117.7 150.25 116.19"/><path class="cls-1" d="M145.5,153.66l-2.71-.87a67.75,67.75,0,0,1-23.34-2.51c-.62,0-1.72-.08-3.14-.2l2.2.14,2.25-4.7,7.35,1.19,9.56,3.82.71.28,4.87,1.95Z"/><path class="cls-1" d="M143.25,152.76l2.25.9-2.71-.87L137,150.91h-.09l.8-.37,8.31-3.82,7.34-1.19,0,0c.13.09.84.56,2,1.19a6.66,6.66,0,0,1-1.92-1.07l3.16,4.62A58.78,58.78,0,0,1,143.25,152.76Z"/><path class="cls-1" d="M146.08,123.83s4.6,16.26,7.24,21.69c0,0-3,4.52-16.11,5.38s-16.45-5.38-16.45-5.38,5.86-9.74,3.52-21.13S146.08,123.83,146.08,123.83Z"/><path class="cls-1" d="M137.28,77.59s16.86,2.33,14.9,29.2-16.84,25-17.84,25-14.87.82-16.68-31.9C117.66,99.88,116.65,75.69,137.28,77.59Z"/><path class="cls-7" d="M152,99.21s1.79-2,2.51,0-2.15,10.82-2.36,11.56c0,0-.32.8-.77.37S152,99.21,152,99.21Z"/><path class="cls-7" d="M118,99.62s-1.84-2-2.51,0,2.5,11.16,2.65,11.5c0,0,.34.79.78.36S118,99.62,118,99.62Z"/><path class="cls-2" d="M151.3,113.65l.12-7.39s-1.49-6.8-1.9-7.92.34-5.06,0-5.87-11.44,2.47-29.8,1c0,0,2.18,6.44,1,6.92s-1.21,8.44-1.21,8.44l-.51,3s-3.27-18.8-3.1-21.07c.22-3-1.12-17.12,24.71-15.27a15.72,15.72,0,0,1,8.21,3c2.69,2,5.49,5.16,5.34,9.58C154,93.94,151.3,113.65,151.3,113.65Z"/><path class="cls-8" d="M125.36,127.67s7.64,8.53,19.28-.43c0,0-3.17,6.67-10.12,7S125.36,127.67,125.36,127.67Z"/><path class="cls-9" d="M171.22,203.23c-1.63,2.77-2.89,12.9-2.57,15.45.44,3.5-.67,12.53.44,23.26l-.37.11a.82.82,0,0,1,0-.11l-1.17.07-29.27,1.86L109,242h0l-1.19-.08c.75-9,.31-19.5.39-23.18,0-2.57-1.33-12.76-3-15.53s-9.52-19.55-9.52-19.55a23.31,23.31,0,0,0,.67-3.18c.13-.91.24-1.89.32-2.9.85-11.11-1.49-27-1.49-27a4.48,4.48,0,0,1,.55-.21,21.86,21.86,0,0,1,5.91-.89h.09c1.17,0,2.32,0,3.42,0,.63,0,1.26,0,1.89.05l-.25,0,.87-.25h0l13-3.69h0l-2.25,4.7-2.2-.14c1.42.12,2.52.2,3.14.2a67.75,67.75,0,0,0,23.34,2.51l2.71.87-2.25-.9a58.78,58.78,0,0,0,13.33-2.48l-3.16-4.62a6.66,6.66,0,0,0,1.92,1.07c2.11.9,5.48,2,8.26,2.85,3.47-.28,7.4-.3,10.43,1l.1,0,0,.53c.06,1,.22,3.35.48,6.4.6,7,1.75,18.66,3.58,24.95C178.22,182.47,172.86,200.47,171.22,203.23Z"/><path class="cls-9" d="M145.5,153.66l-2.71-.87.46,0Z"/><path class="cls-9" d="M168.72,242.05A149.32,149.32,0,0,1,138,247.3a96.29,96.29,0,0,1-30.22-5.36l30.44,1.93,30.44-1.93A.82.82,0,0,0,168.72,242.05Z"/><ellipse class="cls-10" cx="127.86" cy="109.72" rx="1.55" ry="2.68"/><ellipse class="cls-10" cx="144.43" cy="109.72" rx="1.55" ry="2.68"/><path class="cls-10" d="M122.53,105.53c1.44-3.69,6.1-3.08,9.19-2.74,1.56.18,1.2,2.58-.37,2.42-1.36-.14-2.72-.37-4.08-.52-1.63-.18-2.93.59-4.34,1.24A.31.31,0,0,1,122.53,105.53Z"/><path class="cls-10" d="M148.87,105.57c-1.31-3.74-6-3.31-9.09-3.08-1.57.11-1.29,2.53.28,2.43,1.37-.09,2.73-.27,4.1-.37,1.64-.11,2.91.7,4.29,1.41A.31.31,0,0,0,148.87,105.57Z"/><path class="cls-11" d="M137.27,104.81c.06-.19.35-.09.33.1a39,39,0,0,0-.38,4.31,2.71,2.71,0,0,0,1.18,2.31,1.49,1.49,0,0,1,.6.64c.5,1.09.2,2.4-1.14,2.57a.23.23,0,0,1-.15-.41c.75-.37,1-1.1.62-2.18-.27-.27-.63-.46-.91-.74a2.91,2.91,0,0,1-.64-1.43A10.58,10.58,0,0,1,137.27,104.81Z"/><path class="cls-10" d="M133.16,126.59a8.68,8.68,0,0,0,6.71-.83A9.9,9.9,0,0,0,144,121c-5.37,1.4-11.15.72-16.71,0C128.7,123.3,130.35,125.7,133.16,126.59Z"/><path class="cls-12" d="M141.57,121.69a30,30,0,0,1-11.26-.09,4.63,4.63,0,0,0,3.11,2.36,13.61,13.61,0,0,0,4,.22,5.38,5.38,0,0,0,1.88-.32A6.37,6.37,0,0,0,141.57,121.69Z"/><path class="cls-11" d="M127.82,119.51c-.54.16-1.43,1-1,1.57a.24.24,0,0,0,.34,0,1,1,0,0,0,.22-.55,1.62,1.62,0,0,1,.54-.77C128.06,119.7,128,119.47,127.82,119.51Z"/><path class="cls-11" d="M144.55,121.09a3.16,3.16,0,0,0-1.12-1.12.26.26,0,0,0-.38.32,5.21,5.21,0,0,0,.28.52c.11.21,0,.41.08.63a6.64,6.64,0,0,0,.32,1.24.31.31,0,0,0,.53,0A1.68,1.68,0,0,0,144.55,121.09Z"/><path class="cls-9" d="M114.41,383.32l-.25,4.37-.21,3.58a2.6,2.6,0,0,1-2.5,2.58H84.53a5.52,5.52,0,0,1-.56-1.68,2.64,2.64,0,0,1,.56-2.27c1.38-1.5,12.34-3.79,13.82-6.48s1.46-6,3.64-6,2.46,4.74,4.33,4.74c1.36,0,5-.08,7-.12A1.16,1.16,0,0,1,114.41,383.32Z"/><path class="cls-13" d="M114.16,387.69l-.21,3.58a2.6,2.6,0,0,1-2.5,2.58H84.53a5.52,5.52,0,0,1-.56-1.68c3.53-.1,17-.37,18.53-.37,1.87,0,3.46-1.67,5.26-3.17C108.85,387.73,111.91,387.63,114.16,387.69Z"/><rect class="cls-14" x="98.34" y="383.49" width="0.47" height="3.68" transform="translate(-225.62 154.9) rotate(-40.25)"/><polygon class="cls-14" points="97.17 387.79 95.73 385.03 96.16 384.81 97.6 387.57 97.17 387.79"/><rect class="cls-14" x="99.76" y="381.54" width="0.47" height="3.24" transform="translate(-284.64 289.01) rotate(-61.62)"/><path class="cls-9" d="M162.65,384.88l.25,4.37.21,3.58a2.62,2.62,0,0,0,2.5,2.58h26.92a5.52,5.52,0,0,0,.56-1.68,2.64,2.64,0,0,0-.56-2.27c-1.37-1.5-12.34-3.8-13.82-6.48s-1.46-6-3.63-6-2.46,4.74-4.34,4.74c-1.36,0-5-.08-7-.12A1.17,1.17,0,0,0,162.65,384.88Z"/><path class="cls-13" d="M163.69,389.25l.21,3.58a2.62,2.62,0,0,0,2.5,2.58h26.92a5.52,5.52,0,0,0,.56-1.68c-3.53-.1-17-.38-18.53-.38-1.87,0-3.46-1.66-5.26-3.16C169,389.29,166,389.19,163.69,389.25Z"/><rect class="cls-14" x="177.44" y="386.65" width="3.68" height="0.47" transform="translate(-231.89 273.92) rotate(-49.77)"/><polygon class="cls-14" points="180.68 389.35 180.26 389.13 181.7 386.37 182.12 386.59 180.68 389.35"/><rect class="cls-14" x="176.24" y="384.48" width="3.24" height="0.47" transform="translate(-161.25 130.45) rotate(-28.33)"/><path class="cls-2" d="M147.05,136.42v0a9.55,9.55,0,0,1-.51.95l-.06.07a.24.24,0,0,1-.08.09l-.6.31h0a70.75,70.75,0,0,1-9.16,3.95h0a3.71,3.71,0,0,1-2.14,0h0a69.55,69.55,0,0,1-9.16-3.95h0c-.27-.13-.47-.24-.59-.31a.2.2,0,0,1-.09-.09l0-.07a7.85,7.85,0,0,1-.51-.95v0c-6.19-10.69-5.32-29.16-4.54-28.39.27.85.06,5,1.23,9.63,0,0,1.19,10.86,13.73,11.31l.33,0h1.48l.33,0c12.53-.45,13.72-11.31,13.72-11.31,1.18-4.61,1-8.78,1.24-9.63C152.36,107.26,153.23,125.73,147.05,136.42Z"/><path class="cls-2" d="M147.58,129.47,142.11,128c.84-1.85,1-4.26.36-4.89H129.56a20.76,20.76,0,0,0,.48,5.35l-5.8.55c-1.3-4.86-1.15-10.5,3.15-11.78l.41-.12h16l.51.19a7.07,7.07,0,0,1,3.9,3.88C149.22,123.53,149,126.32,147.58,129.47Z"/><path class="cls-9" d="M153.34,145.54l0,.05a.25.25,0,0,1,0-.07Z"/><path class="cls-4" d="M174,185.2h0l0,.14h0C174.07,185.29,174,185.24,174,185.2Z"/><path class="cls-6" d="M215.17,98.55v-.06l-.48.13h0Z"/><path class="cls-1" d="M102.75,148.48h0Z"/><rect class="cls-15" x="69.39" y="57.54" width="277.95" height="4.91"/><rect class="cls-16" x="61.43" y="12.43" width="12.39" height="95.12" transform="translate(135.26 119.98) rotate(180)"/><rect class="cls-16" x="73.65" y="7.07" width="12.39" height="105.85" transform="translate(159.69 119.98) rotate(180)"/><rect class="cls-16" x="86.04" y="1.26" width="12.39" height="117.47" transform="translate(184.47 119.98) rotate(180)"/><rect class="cls-16" x="24.26" y="42.27" width="12.39" height="35.43" transform="translate(60.91 119.98) rotate(180)"/><rect class="cls-16" x="49.04" y="20.76" width="14.65" height="78.47" transform="translate(112.74 119.98) rotate(180)"/><rect class="cls-16" x="36.65" y="29.55" width="13.87" height="60.88" transform="translate(87.17 119.98) rotate(180)"/><rect class="cls-16" x="326.17" y="12.43" width="12.39" height="95.12"/><rect class="cls-16" x="313.96" y="7.07" width="12.39" height="105.85"/><rect class="cls-16" x="301.57" y="1.26" width="12.39" height="117.47"/><rect class="cls-16" x="363.35" y="42.27" width="12.39" height="35.43"/><rect class="cls-16" x="336.3" y="20.76" width="14.65" height="78.47"/><rect class="cls-16" x="349.48" y="29.55" width="13.87" height="60.88"/><path class="cls-1" d="M205.6,70.22c-3.46-2.54-5.29-5.08-5.49-6.1s2-9.46,2-10.78,3.25,1.22,3.05,4.07a18.48,18.48,0,0,1-.41,3.46s3.66,1.32,4.78,3.86S205.6,70.22,205.6,70.22Z"/><path class="cls-1" d="M207.63,52.43c1.22.71,1.73,7.62-.51,7.93s-2.85-6.92-2-7.73S207.63,52.43,207.63,52.43Z"/><path class="cls-1" d="M211.39,52.43c1.85.46,1.73,8.33-.61,8S207.73,51.51,211.39,52.43Z"/><path class="cls-1" d="M214.64,52.83c1.79,1.1.61,8.65-1.62,8.14S212.81,51.72,214.64,52.83Z"/><path class="cls-1" d="M216.47,54.26c1.42-1,3.05,5,1,6.2S214,56,216.47,54.26Z"/><polygon class="cls-1" points="205.75 71.05 205.47 69.97 207.5 68.93 208.48 69.78 207.5 71.58 205.75 71.05"/><path class="cls-5" d="M202.31,140.42c4.77-5.25,4.59-13.32,1.71-19.47-.49,9.69-1.34,19.16-10.57,22.73l.43.54C197,144.49,200.21,142.75,202.31,140.42Z"/><path class="cls-5" d="M190.51,140.7c-.42-5.63,3.28-11,7-13.7a16.67,16.67,0,0,0-8.7,12.4.74.74,0,0,0,.21.31l.67.43A3.73,3.73,0,0,1,190.51,140.7Z"/><path class="cls-5" d="M200,171.15h0l-.09.1a20.6,20.6,0,0,1-1.39,1.62c-.16.13-.59.51-1.27,1l-.18.14c-3.11,2.4-8.36,8.33-18.89,8.41l-.5-1.9c22.21-6.35,31.73-33.2,31.73-33.2l3.51,2.08a0,0,0,0,1,0,0C214,156.24,203.6,166.69,200,171.15Z"/></svg>