<svg id="Layer_1" data-name="Layer 1" xmlns="http://www.w3.org/2000/svg" viewBox="100 0 200 400"><defs><style>.cls-1{fill:#ffaf82;}.cls-2{fill:#2a2a2a;}.cls-3{fill:#cc7e00;}.cls-4{fill:#b76e04;}.cls-5{fill:#e4e4e4;}.cls-6{fill:#2d2d2d;}.cls-7{fill:#fca377;}.cls-8{fill:#f99380;}.cls-9{fill:#83433b;}.cls-10{fill:#ce846f;}.cls-11{fill:#434343;}.cls-12{fill:#6b6b6b;}.cls-13{fill:#fff;}</style></defs><polygon class="cls-1" points="159.03 348.89 191.76 219.89 205.61 214.23 205.61 189.05 171.53 195.03 147.08 347.81 159.03 348.89"/><polygon class="cls-1" points="228.59 349.03 200.26 201.01 228.58 196.51 241.13 347.9 228.59 349.03"/><path class="cls-2" d="M229.1,195.66l7.56,56.64a41,41,0,0,1-28.72,4.59l-3.78-35.31-9.74,1.29-5.18,34.26c-11,2.39-20.68,1.08-29.38-3.24l12.38-60.8Z"/><path class="cls-3" d="M161.1,348l-.35,6.1-.29,5a3.65,3.65,0,0,1-3.49,3.61h-37.6a7.78,7.78,0,0,1-.79-2.35,3.72,3.72,0,0,1,.79-3.17c1.92-2.1,17.23-5.3,19.3-9.06s2-8.38,5.07-8.38,3.44,6.62,6.06,6.62c1.9,0,7-.12,9.73-.18A1.63,1.63,0,0,1,161.1,348Z"/><path class="cls-4" d="M160.75,354.14l-.29,5a3.65,3.65,0,0,1-3.49,3.61h-37.6a7.78,7.78,0,0,1-.79-2.35c4.94-.14,23.69-.52,25.89-.52,2.61,0,4.83-2.33,7.34-4.42C153.33,354.2,157.6,354.06,160.75,354.14Z"/><rect class="cls-5" x="138.65" y="348.28" width="0.66" height="5.14" transform="translate(-193.77 172.84) rotate(-40.25)"/><polygon class="cls-5" points="137.03 354.28 135.01 350.43 135.6 350.12 137.61 353.97 137.03 354.28"/><rect class="cls-5" x="140.64" y="345.55" width="0.66" height="4.52" transform="translate(-232.05 306.51) rotate(-61.62)"/><path class="cls-3" d="M225.75,348l.35,6.1.29,5a3.67,3.67,0,0,0,3.5,3.61h37.6a7.92,7.92,0,0,0,.78-2.35,3.68,3.68,0,0,0-.78-3.17c-1.92-2.1-17.24-5.3-19.31-9.06s-2-8.38-5.07-8.38-3.44,6.62-6.05,6.62c-1.9,0-7-.12-9.73-.18A1.63,1.63,0,0,0,225.75,348Z"/><path class="cls-4" d="M226.1,354.14l.29,5a3.67,3.67,0,0,0,3.5,3.61h37.6a7.92,7.92,0,0,0,.78-2.35c-4.93-.14-23.69-.52-25.88-.52-2.61,0-4.84-2.33-7.35-4.42C233.52,354.2,229.25,354.06,226.1,354.14Z"/><rect class="cls-5" x="245.3" y="350.52" width="5.14" height="0.66" transform="translate(-180.08 313.52) rotate(-49.77)"/><polygon class="cls-5" points="249.83 354.28 249.24 353.97 251.25 350.12 251.84 350.43 249.83 354.28"/><rect class="cls-5" x="243.63" y="347.48" width="4.52" height="0.66" transform="translate(-135.59 158.32) rotate(-28.33)"/><path class="cls-6" d="M221.28,53.71s1.72,17.8-.94,21.67l-4-21.67Z"/><path class="cls-7" d="M206.29,94.58v10.73a4.15,4.15,0,0,1-4.46,3.5c-4.07,0-4.31-3.44-4.31-3.44V95.3Z"/><path class="cls-1" d="M220.34,75.35v.07h0c-.11,10.64-2.14,20.74-7.64,22-2,.44-4.15.93-6.41,1.28a32.11,32.11,0,0,1-8.77.34c-5.75-.66-11.35-3.51-15.41-11.28A27,27,0,0,1,180.5,84v0a32.18,32.18,0,0,1-.9-3.13h0c-.06-.25-.12-.51-.17-.76-.12-.57-.23-1.14-.32-1.71a.77.77,0,0,1,0-.15c-.17-1-.29-2-.37-3-.07-.68-.11-1.35-.14-2a52.27,52.27,0,0,1,.25-7.66,43.64,43.64,0,0,1,2-9.3,14,14,0,0,1,2.84-5.31c4.3-4.2,14.7-6.15,14.7-6.15,10.56-1.57,16.44-1.75,19.57,9.05.16.53.3,1.08.44,1.67a2.86,2.86,0,0,1,.07.28A89.76,89.76,0,0,1,220.34,75.35Z"/><path class="cls-6" d="M180.49,83.91s0,0,0,0a7.9,7.9,0,0,1-2-1.06A22.55,22.55,0,0,1,174.83,80c-.41-.4-.81-.83-1.2-1.28h0a12.55,12.55,0,0,1-3.18-7.19,9.2,9.2,0,0,1,0-1.39c.61-6.34,7.91-12.24,10.32-14,.48-.36.76-.55.76-.55l.68,1.73a69.11,69.11,0,0,0-2,7.31,41.33,41.33,0,0,0-1.05,8.47q0,1.08,0,2c0,.56,0,1.09,0,1.59h0c0,.56,0,1.09.08,1.57s.09,1.18.15,1.69c0,.29.06.55.09.8h0a6.78,6.78,0,0,0,.89,3.12Z"/><path class="cls-1" d="M179.2,73.08s-7.18-.26-6,4.5,6.58,2.28,6.58,2.28Z"/><path class="cls-8" d="M179.38,75.14l.27,3.12s-2.74.43-3.08-1.54S179.38,75.14,179.38,75.14Z"/><path class="cls-2" d="M170.48,70.17s.17-20,7.62-25c9.21-6.24,28.28-7.68,33-7.8,3.55-.1,8-.72,7.54,2.76,0,0,7.45,1.08,5.29,6.84,0,0,5.4,5.45-.6,8.61,0,0-38.24,0-43.08,9Z"/><path class="cls-1" d="M201.91,103.85c-13.95.66-30.38,5.43-30.38,5.43L181,174.74h41.87l9.44-65.46S215.86,104.51,201.91,103.85Z"/><path class="cls-1" d="M171.53,109.28s-28.44,9.56-36-3.11,4.61-39.3,4.61-39.3-1.88,5.66,3.15,5.55,15.11.78,14.69-3.76.45-14.56-17.21-13.55c-14.68.83-16.78,19.63-18.25,26s-5.14,29.38.63,39.06c8.39,14.06,51.57,11.33,51.57,11.33Z"/><path class="cls-1" d="M232.28,109.28s26.13,9,33.69-3.69-4.62-39.3-4.62-39.3,1.89,5.66-3.15,5.55-15.1.78-14.68-3.76-.45-14.56,17.2-13.55c14.69.83,16.78,19.63,18.25,26s5.15,29.38-.63,39.06c-8.39,14.06-51.57,11.33-51.57,11.33Z"/><path class="cls-3" d="M217.55,105.84s-8.91,31.71-13.89,31.71-15.42-32.07-15.42-32.07l-7.2,1.43s2.47,39.16-4,40.57l-8.15,59.61s32.76,12.38,63.39,0L227,145.91s-5.67-11.62-1.85-38.46Z"/><ellipse class="cls-9" cx="191.75" cy="76.96" rx="1.95" ry="3.36" transform="translate(-7.91 23.8) rotate(-6.96)"/><path class="cls-9" d="M214.31,74.21c.23,1.84-.46,3.44-1.52,3.57s-2.12-1.26-2.34-3.1.46-3.44,1.52-3.57S214.09,72.36,214.31,74.21Z"/><path class="cls-9" d="M184.6,72.69c1-4.87,6.84-5.15,10.74-5.42,2-.13,2,2.92.09,3.06-1.72.13-3.45.15-5.16.27-2.06.14-3.49,1.38-5.09,2.5A.39.39,0,0,1,184.6,72.69Z"/><path class="cls-9" d="M217.26,68.7c-1.95-4.56-7.76-3.62-11.62-3.07-2,.28-1.41,3.28.55,3,1.7-.23,3.39-.57,5.1-.81,2-.29,3.69.62,5.49,1.39A.39.39,0,0,0,217.26,68.7Z"/><path class="cls-10" d="M202.72,69.42c.05-.26.43-.17.43.07a44.56,44.56,0,0,0,.18,5.42,3.37,3.37,0,0,0,1.81,2.7,1.87,1.87,0,0,1,.85.7c.79,1.29.61,3-1,3.37a.28.28,0,0,1-.25-.48c.88-.58,1-1.51.45-2.8-.38-.31-.86-.49-1.25-.79a3.61,3.61,0,0,1-1-1.68A13.28,13.28,0,0,1,202.72,69.42Z"/><path class="cls-11" d="M270.7,65.76a12.5,12.5,0,1,1-12.5-12.49A12.5,12.5,0,0,1,270.7,65.76Z"/><path class="cls-12" d="M264.28,65.76a6.08,6.08,0,1,1-6.08-6.08A6.08,6.08,0,0,1,264.28,65.76Z"/><path class="cls-11" d="M156.17,65.76a12.49,12.49,0,1,1-12.49-12.49A12.49,12.49,0,0,1,156.17,65.76Z"/><path class="cls-12" d="M149.76,65.76a6.08,6.08,0,1,1-6.08-6.08A6.08,6.08,0,0,1,149.76,65.76Z"/><path class="cls-2" d="M220.09,91.62c0,.46,0,.9,0,1.33a22.1,22.1,0,0,1-.51,5.22,7.22,7.22,0,0,1-1.05,2.18q-.25.38-.54.72a11.78,11.78,0,0,1-3.36,2.6L214,104a22,22,0,0,1-3.27,1.23l-.69.19h0a33.48,33.48,0,0,1-3.86.77l-.21,0-.49.06a36.9,36.9,0,0,1-4.84.11l-.72,0a32.62,32.62,0,0,1-4.77-.61l-.71-.17a18,18,0,0,1-4.24-1.52c-.22-.11-.44-.24-.65-.37a8.84,8.84,0,0,1-3.11-3,7,7,0,0,1-.48-.9h0C179.17,90,177.76,72,179.09,72.64l.11.44s5.87,18.15,11.27,18.63,10.78,1.86,14.07,1.86,4.77-1.43,7.12-2.7,4.77-2.17,4.9-2.86c.09-.41,2.46-7.89,3.78-12.63C220.31,79.43,220.07,87.37,220.09,91.62Z"/><path class="cls-9" d="M201.87,89.87a7.06,7.06,0,0,0,5.47-.68,8.1,8.1,0,0,0,3.36-3.85c-4.38,1.14-9.1.59-13.63,0C198.23,87.18,199.57,89.14,201.87,89.87Z"/><path class="cls-13" d="M208.73,85.87a24.7,24.7,0,0,1-9.19-.07,3.8,3.8,0,0,0,2.54,1.92,11,11,0,0,0,3.29.18,4.59,4.59,0,0,0,1.53-.26A5.34,5.34,0,0,0,208.73,85.87Z"/><path class="cls-10" d="M197.51,84.09c-.44.13-1.16.78-.79,1.28a.18.18,0,0,0,.27,0c.15-.14.13-.25.18-.44a1.42,1.42,0,0,1,.44-.63C197.7,84.24,197.64,84.06,197.51,84.09Z"/><path class="cls-10" d="M211.16,85.38a2.56,2.56,0,0,0-.91-.91.21.21,0,0,0-.31.26,4.23,4.23,0,0,0,.22.42c.1.17,0,.33.07.52a4.9,4.9,0,0,0,.26,1,.25.25,0,0,0,.43,0A1.36,1.36,0,0,0,211.16,85.38Z"/><path class="cls-2" d="M203.64,82.7c-3.6,0-6.89.18-7.55,4.08a44.55,44.55,0,0,0,0,9.82l3.42-.54s-1.5-7.67-.42-9.22,9-1.56,9.4-.3,1.14,8,1.14,8l3.42-1.38s-1.34-10.07-4.26-10.43A26.89,26.89,0,0,0,203.64,82.7Z"/></svg>