<svg id="Layer_1" data-name="Layer 1" xmlns="http://www.w3.org/2000/svg" viewBox="100 0 200 400"><defs><style>.cls-1{fill:#2a2a2a;}.cls-2{fill:#3e0e5f;}.cls-3{fill:#ffaf82;}.cls-4{fill:#eea886;}.cls-5{fill:#fca377;}.cls-6{fill:#434343;}.cls-7{fill:#6b6b6b;}.cls-8{fill:#83433b;}.cls-9{fill:#ce846f;}.cls-10{fill:#2d0b47;}.cls-11{fill:#e4e4e4;}.cls-12{fill:#fff;}</style></defs><path class="cls-1" d="M228.1,193.57s2.07,5.51,3,7.27,20.25,38.75,21.9,47.42,8,29.27,9.64,31.76,7.06,18.51,9.76,31.73,8.41,35.85,9.62,38.64-10.37,2.94-10.37,2.94S254.8,319.83,251,313.66s-7.21-16.74-7.66-23.5-5.25-10.28-9.46-15.43-24.48-44.07-28.24-47.59-6.08-3.25-6.08-3.25V195.66Z"/><path class="cls-1" d="M172.36,193.57s-2.07,5.51-3,7.27-22.41,41-24.07,49.68-5.82,27-7.47,29.5-7.06,18.51-9.76,31.73-8.42,35.85-9.62,38.64,10.37,2.94,10.37,2.94,16.82-33.5,20.58-39.67,7.21-16.74,7.66-23.5,5.25-10.28,9.46-15.43,24.48-44.07,28.24-47.59,6.16-3.25,6.16-3.25l-.08-28.23Z"/><path class="cls-2" d="M235,129.46c-3.07-10.57,1.54-32.75,1.54-32.75-6-2.57-13.62-.32-16.9-.32s-12.36-2.51-12.36-2.51H192.66s-9.06,2.51-12.35,2.51-10.95-2.25-16.9.32c0,0,4.62,22.56,1.55,33.12,0,0,7.18,19.77,8.91,22.7s0,13.74,0,16.47c-.08,3.9-.68,15-1.47,24.57,0,0,8.79,5.24,27.63,5.68,18.65-1.21,28.11-5.68,28.11-5.68-1.18-11.38-1.94-20.95-2.41-24.66-.34-2.7-1.3-13.45.43-16.38S235,129.46,235,129.46Z"/><path class="cls-3" d="M236.58,96.71s5.06,2.35,7.44,2.52,6.07-2,10.65-1.57,6.33,1.4,10.61,1.19,5.77-1.09,6.07-2.67,5.77-11.29,3.48-24.62S279,62.31,279,62.31s6.28,11.38,7.55,23.94-2.71,24.86-2.88,26.56-1.11,4.25-2.3,4.92-16.18,2-21.36,2.21-15.89-1.48-18.78.47-6.52,10-6.52,10S229.74,105.56,236.58,96.71Z"/><path class="cls-3" d="M163.4,96.71s-5.06,2.35-7.44,2.52-6.06-1.51-10.65-1.09-6.32.92-10.61.71-5.77-1.09-6.07-2.67-5.77-11.29-3.47-24.62S121,62.31,121,62.31s-6.28,11.38-7.56,23.94,2.72,24.86,2.89,26.56,1.1,4.25,2.29,4.92,16.18,2,21.36,2.21,15.9-1.48,18.78.47,6.2,9.42,6.2,9.42S170.25,105.56,163.4,96.71Z"/><path class="cls-3" d="M210.27,81s-1.25,7.82,1.31,13.09c0,0,2.76,12.34-9.92,13.17s-13.22-10.52-13.22-10.52,2.95-4.15.68-15.19S210.27,81,210.27,81Z"/><path class="cls-3" d="M201.56,36.16S217.85,38.43,216,64.5s-16.28,24.25-17.24,24.25-14.38.79-16.12-30.95C182.6,57.8,181.62,34.32,201.56,36.16Z"/><path class="cls-4" d="M216,57.14s1.74-2,2.44,0-2.09,10.5-2.29,11.22c0,0-.31.77-.75.36S216,57.14,216,57.14Z"/><path class="cls-4" d="M183,57.54s-1.79-1.94-2.44,0S183,68.4,183.13,68.73c0,0,.32.76.75.34S183,57.54,183,57.54Z"/><path class="cls-1" d="M216.12,61.13l-2.25,3.24s-.09-7-.49-8.07.34-4.91,0-5.69-11.06,2.39-28.8,1c0,0,2.1,6.25,1,6.72s-.41,8.18-.41,8.18l-2-2.16S180.73,51.17,180.89,49c.22-2.94-1.08-16.61,23.88-14.81a15.09,15.09,0,0,1,7.94,2.92c2.6,1.94,5.3,5,5.16,9.29A144.69,144.69,0,0,1,216.12,61.13Z"/><path class="cls-5" d="M190.17,84.75s7.41,8.28,18.7-.41c0,0-3.07,6.47-9.82,6.77S190.17,84.75,190.17,84.75Z"/><path class="cls-3" d="M182.52,96.18s.35,26.69,17.47,27.52V93.08A78.16,78.16,0,0,0,182.52,96.18Z"/><path class="cls-3" d="M217.47,96.18s-.35,26.69-17.48,27.52V93.08A78.2,78.2,0,0,1,217.47,96.18Z"/><path class="cls-6" d="M298.64,64.05A24.66,24.66,0,1,1,274,39.39,24.66,24.66,0,0,1,298.64,64.05Z"/><path class="cls-7" d="M286,64.05a12,12,0,1,1-12-12A12,12,0,0,1,286,64.05Z"/><path class="cls-6" d="M151,64.05a24.66,24.66,0,1,1-24.66-24.66A24.66,24.66,0,0,1,151,64.05Z"/><path class="cls-7" d="M138.38,64.05a12,12,0,1,1-12-12A12,12,0,0,1,138.38,64.05Z"/><ellipse class="cls-8" cx="192.68" cy="65.16" rx="1.38" ry="2.39"/><ellipse class="cls-8" cx="207.42" cy="65.16" rx="1.38" ry="2.39"/><path class="cls-8" d="M187.93,61.43c1.29-3.28,5.43-2.74,8.18-2.43,1.39.15,1.07,2.29-.32,2.15-1.22-.13-2.43-.33-3.64-.47a7.25,7.25,0,0,0-3.86,1.11C188.06,61.9,187.85,61.64,187.93,61.43Z"/><path class="cls-8" d="M211.37,61.46c-1.16-3.32-5.32-2.94-8.08-2.73-1.4.1-1.15,2.25.24,2.16,1.22-.08,2.43-.24,3.65-.33A7.18,7.18,0,0,1,211,61.81.27.27,0,0,0,211.37,61.46Z"/><path class="cls-9" d="M201.05,60.79c.06-.17.32-.07.3.09a32.8,32.8,0,0,0-.34,3.84,2.39,2.39,0,0,0,1,2,1.29,1.29,0,0,1,.54.57c.45,1,.18,2.14-1,2.28a.2.2,0,0,1-.14-.36c.67-.33.86-1,.56-1.93-.24-.25-.57-.42-.82-.66a2.71,2.71,0,0,1-.57-1.28A9.48,9.48,0,0,1,201.05,60.79Z"/><path class="cls-2" d="M131.42,353.18l-.31,5.33-.25,4.36a3.19,3.19,0,0,1-3.05,3.14H95a6.68,6.68,0,0,1-.69-2.05,3.23,3.23,0,0,1,.69-2.77c1.67-1.82,15-4.62,16.84-7.89s1.77-7.32,4.42-7.32,3,5.78,5.29,5.78c1.65,0,6.14-.1,8.48-.16A1.43,1.43,0,0,1,131.42,353.18Z"/><path class="cls-10" d="M131.11,358.51l-.25,4.36a3.19,3.19,0,0,1-3.05,3.14H95a6.68,6.68,0,0,1-.69-2.05c4.3-.12,20.67-.45,22.59-.45,2.27,0,4.21-2,6.4-3.86C124.64,358.55,128.36,358.43,131.11,358.51Z"/><rect class="cls-11" x="111.83" y="353.39" width="0.58" height="4.49" transform="translate(-203.22 156.62) rotate(-40.25)"/><polygon class="cls-11" points="110.41 358.62 108.66 355.26 109.17 354.99 110.92 358.35 110.41 358.62"/><rect class="cls-11" x="113.56" y="351.01" width="0.58" height="3.94" transform="translate(-250.82 285.36) rotate(-61.62)"/><path class="cls-2" d="M268.58,352.37l.31,5.32.25,4.36a3.19,3.19,0,0,0,3.05,3.15H305a6.68,6.68,0,0,0,.69-2.05,3.23,3.23,0,0,0-.69-2.77c-1.67-1.83-15-4.62-16.84-7.9s-1.77-7.32-4.42-7.32-3,5.78-5.29,5.78c-1.65,0-6.14-.1-8.48-.15A1.42,1.42,0,0,0,268.58,352.37Z"/><path class="cls-10" d="M268.89,357.69l.25,4.36a3.19,3.19,0,0,0,3.05,3.15H305a6.68,6.68,0,0,0,.69-2.05c-4.3-.12-20.67-.46-22.59-.46-2.27,0-4.21-2-6.4-3.85C275.36,357.74,271.64,357.61,268.89,357.69Z"/><rect class="cls-11" x="285.64" y="354.53" width="4.49" height="0.58" transform="translate(-168.94 345.48) rotate(-49.77)"/><polygon class="cls-11" points="289.59 357.81 289.08 357.54 290.83 354.18 291.35 354.45 289.59 357.81"/><rect class="cls-11" x="284.18" y="351.88" width="3.94" height="0.58" transform="translate(-132.84 177.94) rotate(-28.33)"/><path class="cls-8" d="M197.87,80.94a7.67,7.67,0,0,0,5.95-.74A8.79,8.79,0,0,0,207.46,76c-4.76,1.24-9.88.64-14.8,0C193.92,78,195.38,80.15,197.87,80.94Z"/><path class="cls-12" d="M205.32,76.6a26.8,26.8,0,0,1-10-.08,4.16,4.16,0,0,0,2.77,2.09,11.85,11.85,0,0,0,3.57.19,4.91,4.91,0,0,0,1.66-.28A5.68,5.68,0,0,0,205.32,76.6Z"/><path class="cls-9" d="M193.14,74.67c-.47.14-1.26.85-.86,1.39a.22.22,0,0,0,.3,0c.16-.15.14-.28.2-.48a1.5,1.5,0,0,1,.47-.69C193.35,74.83,193.28,74.63,193.14,74.67Z"/><path class="cls-9" d="M208,76.07a2.76,2.76,0,0,0-1-1,.23.23,0,0,0-.34.28c.08.16.16.31.25.46s0,.36.07.56a5.81,5.81,0,0,0,.28,1.09.28.28,0,0,0,.48,0A1.49,1.49,0,0,0,208,76.07Z"/><path class="cls-1" d="M199.92,90.83c-4.18,0-7.63-2.8-9.21-4.77l4.68-3.75s2.7,3.23,5.55,2.36,3.71-1.85,3.72-1.86a2.05,2.05,0,0,0-.2.45l5.7,1.86c-.32,1-1.7,3.52-7.46,5.29A9.48,9.48,0,0,1,199.92,90.83Z"/></svg>