<svg id="Layer_1" data-name="Layer 1" xmlns="http://www.w3.org/2000/svg" viewBox="100 0 200 400"><defs><style>.cls-1{fill:#2a2a2a;}.cls-2{fill:#4d4d4d;}.cls-3{fill:#ffaf82;}.cls-4{fill:#ffbf8a;}.cls-5{fill:#5b3837;}.cls-6{fill:#6b433f;}.cls-7{fill:#fca377;}.cls-8{fill:#f2f2f2;}.cls-9{fill:#83433b;}.cls-10{fill:#ce846f;}.cls-11{fill:#593735;}.cls-12{fill:#e4e4e4;}.cls-13{fill:#6b6b6b;}.cls-14{fill:#fff;}</style></defs><path class="cls-1" d="M174.29,230.39h0c.19-.32-9.34,28.14-9.44,29.24l-2.24,25.27a69.19,69.19,0,0,1-3,14.81l-6.88,21.69a68.87,68.87,0,0,0-2.71,12.36L148.4,347.1s-3.45,9.7-3,10.38,3,18.06,3,18.06h15.73l8-24.61,4.23-24.6,4.14-6.85a18.08,18.08,0,0,0,2.33-6.15l1.21-6.64,21.44-45.6,22.12,53.5,5,6.77L234.11,332l2.94,11.51h0a96.58,96.58,0,0,0,7.81,30.76l.57,1.3H260.3l1.41-6.66a50,50,0,0,0,.71-16.59L262,348.7a50.17,50.17,0,0,1-.36-7.75l.08-2.49a50.21,50.21,0,0,0-5.39-24.24h0a50.61,50.61,0,0,1-4.88-15.4l-7.34-50.16c-.52-3.52-11.28-25.11-12.28-26.22l-.86-1Z"/><circle class="cls-2" cx="148.4" cy="253.72" r="13.54"/><path class="cls-3" d="M156.68,183.89v16.73a14.38,14.38,0,0,1-1.3,6l-12.47,27.17-13.31,7.9.72,5.63a7.71,7.71,0,0,0,2.93,5.13l5.44,4.22a7.72,7.72,0,0,0,6.86,1.32l.66-.18a7.75,7.75,0,0,0,4.94-4.3l1.29-2.89a7.74,7.74,0,0,0-.11-6.52l-1.06-2.19,17-22a14.37,14.37,0,0,0,3-8.34l.82-27.63Z"/><circle class="cls-2" cx="227.79" cy="35.44" r="13.93"/><polygon class="cls-4" points="229.29 31.07 230.35 23.55 243.29 18.28 247.05 24.67 247.05 29.41 234.56 35.13 229.29 31.07"/><path class="cls-3" d="M229,117.75l8.87-21.31a11.52,11.52,0,0,0,.89-4.74l-1.07-45.28L229,41.68l-1.24-12.19,7.45-3.84L236.37,32l10.68-7.3.38,7.75V44.16l8.06,48a11.59,11.59,0,0,1-.55,6l-17.22,46.76-7.45-12.42Z"/><path class="cls-5" d="M168.8,143.49l-12.09,9.27a7,7,0,0,0-2.71,5.7l.8,27,17.29.9Z"/><path class="cls-5" d="M215.68,130.24l.08-.23a4.56,4.56,0,0,1,5-2.89h0l10.38-14.94,1.43,19.34,6.78,9.78a8.41,8.41,0,0,1,.33,9.09l-7.19,12.19-11-9.91Z"/><path class="cls-1" d="M192.37,71.57l-16.82,3.68a.7.7,0,0,0-.15,1.32h0a.7.7,0,0,1,.31,1L168,91.38a.7.7,0,0,0,.3,1l2.47,1.24a.7.7,0,0,1,.39.52L174,113a.7.7,0,0,0,.85.58l.72-.17a.71.71,0,0,1,.75.3l7.94,12a.71.71,0,0,0,.83.27l3.85-1.38a.7.7,0,0,1,.76.19l2.37,2.59a.69.69,0,0,0,.9.11l4-2.61a.72.72,0,0,1,1,.17l.39.55a.71.71,0,0,0,1.18-.06l3.45-6a.71.71,0,0,1,1.1-.16l1.37,1.31a.71.71,0,0,0,1.14-.24l3.81-9.23a.38.38,0,0,1,.57-.17l.07,0a.39.39,0,0,0,.58-.22l4.28-15.34a.76.76,0,0,0,0-.3l-2-11.42a.71.71,0,0,1,.74-.82h.18a.7.7,0,0,0,.62-1.09l-3.18-4.73a.39.39,0,0,1,.37-.6h0a.38.38,0,0,0,.24-.71l-7.07-4a.71.71,0,0,1-.12-1.14l.46-.4-7.25.8a.65.65,0,0,1-.36-.05l-5.07-2.2a.71.71,0,0,0-.94.9l.32.84A.7.7,0,0,1,192.37,71.57Z"/><rect class="cls-3" x="185.43" y="115.64" width="19.49" height="29.19"/><path class="cls-6" d="M185.43,129.64,167.67,143l-.65,7a78.38,78.38,0,0,0,.29,17l1.35,10.74a29.93,29.93,0,0,0,3.7,11.09l.48.84-.75,43,27-1.27a70.78,70.78,0,0,0,20.7-4.13l12.76-4.61-3.78-32.91a43.35,43.35,0,0,1,.81-14.63l3-13-2-2.13A50.47,50.47,0,0,1,218.7,140l-3-9.8-10.76-1.88-.26,2.52a9.25,9.25,0,0,1-5,7.31l-.3.16a9.25,9.25,0,0,1-7.07.57h0a9.25,9.25,0,0,1-6.09-6.38Z"/><polygon class="cls-7" points="204.92 125.73 185.43 129.64 185.43 115.64 204.92 115.64 204.92 125.73"/><path class="cls-7" d="M209,110.65l-.63.13a2.3,2.3,0,0,1-2.76-2,16.18,16.18,0,0,1,1.8-8.61,2.32,2.32,0,0,1,3-.77h0a6.15,6.15,0,0,1,3.13,6.63h0A5.86,5.86,0,0,1,209,110.65Z"/><path class="cls-7" d="M175.9,110.38h0a3.85,3.85,0,0,0,4.64-4.1,18.42,18.42,0,0,0-.8-3.85,3.86,3.86,0,0,0-5.5-2.21h0a3.86,3.86,0,0,0-2,4.16l.59,2.94A3.91,3.91,0,0,0,175.9,110.38Z"/><path class="cls-2" d="M268.72,25.43A14.82,14.82,0,1,1,253.9,10.6,14.82,14.82,0,0,1,268.72,25.43Z"/><path class="cls-2" d="M145.4,233.7a14.83,14.83,0,1,1-14.83-14.82A14.83,14.83,0,0,1,145.4,233.7Z"/><polygon class="cls-8" points="185.2 161.77 171.13 164.93 171.13 160.87 185.2 157.71 185.2 161.77"/><path class="cls-3" d="M207.33,89.41h0a11.15,11.15,0,0,0-8.52-4.57l-5.14-.23a8.34,8.34,0,0,0-1,0l-5.15.23A11.12,11.12,0,0,0,179,89.41h0a11.14,11.14,0,0,0-2.1,5.54l-.54,5.84a11.32,11.32,0,0,0,.45,4.33l2.77,8.95a11.13,11.13,0,0,0,3.84,5.52l2.92,2.26a11.17,11.17,0,0,0,13.64,0l2.92-2.26a11,11,0,0,0,3.83-5.52l2.77-8.95a11.13,11.13,0,0,0,.46-4.33L209.42,95A11.13,11.13,0,0,0,207.33,89.41Z"/><path class="cls-1" d="M176.27,84l-1.43,7.47a.85.85,0,0,0,1.23.91l13.67-7.17,1,4.32A.84.84,0,0,0,192,90l8.17-4.33-.93,6.14a.84.84,0,0,0,1.07.94l6.69-2L208,94.16l3.78-3.84a20.1,20.1,0,0,0-15-9C184.67,80,176.27,84,176.27,84Z"/><ellipse class="cls-9" cx="186.85" cy="104.4" rx="1.38" ry="2.39"/><ellipse class="cls-9" cx="201.64" cy="104.4" rx="1.38" ry="2.39"/><path class="cls-9" d="M182.09,100.65c1.29-3.28,5.44-2.74,8.2-2.43,1.4.15,1.07,2.29-.32,2.15-1.22-.13-2.43-.33-3.65-.46-1.46-.16-2.62.52-3.88,1.11A.28.28,0,0,1,182.09,100.65Z"/><path class="cls-9" d="M205.6,100.69c-1.17-3.33-5.34-3-8.11-2.75-1.4.11-1.16,2.26.24,2.17,1.23-.08,2.44-.24,3.66-.33,1.47-.1,2.6.63,3.84,1.26C205.45,101.16,205.67,100.91,205.6,100.69Z"/><path class="cls-10" d="M195.25,100c.05-.17.31-.07.29.1a32.8,32.8,0,0,0-.34,3.84,2.42,2.42,0,0,0,1.05,2.06,1.29,1.29,0,0,1,.54.57c.45,1,.18,2.15-1,2.29a.2.2,0,0,1-.14-.36c.68-.33.87-1,.56-1.94-.24-.25-.56-.42-.81-.66a2.53,2.53,0,0,1-.57-1.28A9.34,9.34,0,0,1,195.25,100Z"/><path class="cls-6" d="M164.91,375.66l-.33,5.7-.27,4.67A3.42,3.42,0,0,1,161,389.4H125.91a7.45,7.45,0,0,1-.74-2.2,3.45,3.45,0,0,1,.74-3c1.79-2,16.1-4.95,18-8.46s1.9-7.84,4.74-7.84,3.21,6.19,5.66,6.19c1.77,0,6.57-.11,9.09-.17A1.53,1.53,0,0,1,164.91,375.66Z"/><path class="cls-11" d="M164.58,381.36l-.27,4.67A3.42,3.42,0,0,1,161,389.4H125.91a7.45,7.45,0,0,1-.74-2.2c4.61-.12,22.14-.49,24.19-.49,2.44,0,4.52-2.17,6.87-4.12C157.65,381.41,161.64,381.28,164.58,381.36Z"/><rect class="cls-12" x="143.93" y="375.88" width="0.62" height="4.8" transform="translate(-210.25 182.73) rotate(-40.25)"/><polygon class="cls-12" points="142.41 381.48 140.53 377.88 141.08 377.6 142.96 381.2 142.41 381.48"/><rect class="cls-12" x="145.78" y="373.33" width="0.62" height="4.22" transform="translate(-253.67 325.52) rotate(-61.62)"/><path class="cls-6" d="M244.45,374.78l.33,5.71.27,4.67a3.42,3.42,0,0,0,3.27,3.37h35.13a7.45,7.45,0,0,0,.74-2.2,3.45,3.45,0,0,0-.74-3c-1.79-2-16.1-4.95-18-8.46s-1.9-7.84-4.74-7.84-3.21,6.19-5.65,6.19c-1.78,0-6.58-.11-9.09-.17A1.53,1.53,0,0,0,244.45,374.78Z"/><path class="cls-11" d="M244.78,380.49l.27,4.67a3.42,3.42,0,0,0,3.27,3.37h35.13a7.45,7.45,0,0,0,.74-2.2c-4.61-.12-22.14-.49-24.19-.49-2.44,0-4.52-2.17-6.87-4.12C251.71,380.54,247.72,380.4,244.78,380.49Z"/><rect class="cls-12" x="262.72" y="377.1" width="4.8" height="0.62" transform="translate(-194.25 336.1) rotate(-49.77)"/><polygon class="cls-12" points="266.95 380.61 266.4 380.32 268.28 376.73 268.83 377.01 266.95 380.61"/><rect class="cls-12" x="261.16" y="374.26" width="4.22" height="0.62" transform="translate(-146.21 169.77) rotate(-28.33)"/><path class="cls-13" d="M136.63,233.7a6.06,6.06,0,1,1-6.06-6.06A6.06,6.06,0,0,1,136.63,233.7Z"/><path class="cls-13" d="M260,24.91a6.06,6.06,0,1,1-6.06-6.06A6.06,6.06,0,0,1,260,24.91Z"/><path class="cls-9" d="M192.42,118.06a6.52,6.52,0,0,0,5.06-.63,7.45,7.45,0,0,0,3.1-3.56c-4.05,1.06-8.4.55-12.59,0C189.06,115.58,190.31,117.39,192.42,118.06Z"/><path class="cls-14" d="M198.76,114.36a22.87,22.87,0,0,1-8.49-.06,3.53,3.53,0,0,0,2.35,1.77,10,10,0,0,0,3,.17,4.14,4.14,0,0,0,1.41-.24A4.82,4.82,0,0,0,198.76,114.36Z"/><path class="cls-10" d="M188.4,112.72c-.4.12-1.07.72-.73,1.18a.18.18,0,0,0,.25,0c.14-.14.12-.24.17-.42a1.24,1.24,0,0,1,.41-.58C188.58,112.86,188.52,112.69,188.4,112.72Z"/><path class="cls-10" d="M201,113.91a2.5,2.5,0,0,0-.84-.84.2.2,0,0,0-.29.24c.06.13.13.26.2.39s0,.31.07.48a6,6,0,0,0,.23.93.24.24,0,0,0,.41,0A1.3,1.3,0,0,0,201,113.91Z"/><path class="cls-1" d="M185.07,117a5,5,0,0,1,.28-4.86c1.42-2.22,4.42-3.22,9.2-3.07s7.94,1.31,9.39,3.53a4.81,4.81,0,0,1,.48,4.39l-5.55-2.28a1.08,1.08,0,0,0,.1,1.24s-.87-.77-4.61-.89c-3.27-.1-4.1.48-4.11.49a1,1,0,0,0,.19-1.23Z"/></svg>