<svg width="182" height="114" viewBox="0 0 182 114" fill="none" xmlns="http://www.w3.org/2000/svg">
<g clip-path="url(#clip0_3326_89618)">
<mask id="mask0_3326_89618" style="mask-type:alpha" maskUnits="userSpaceOnUse" x="-123" y="-86" width="322" height="298">
<path d="M5.42663 146.83C-29.4438 151.51 -62.6555 140.177 -86.5304 118.621C-105.138 101.802 -118.039 78.7875 -121.609 52.2643C-129.744 -8.26226 -86.0051 -64.0959 -23.9836 -72.4293L65.3224 -84.4818C116.183 -91.3327 162.863 -56.6354 169.501 -7.02104L198.71 211.083C198.735 211.269 180.042 123.635 5.42663 146.83Z" fill="url(#paint0_linear_3326_89618)"/>
</mask>
<g mask="url(#mask0_3326_89618)">
<path opacity="0.1" d="M65.1689 172.488C44.1632 180.716 19.0258 175.533 -4.33647 169.072C-27.8377 162.652 -49.5979 154.814 -66.2933 139.601C-82.9547 124.53 -94.2735 102.001 -93.9056 79.7984C-93.4853 57.5047 -81.1346 35.3139 -67.2052 16.5789C-53.1893 -2.1061 -37.5764 -17.5669 -18.7633 -27.7876C-0.0027246 -37.9175 21.9764 -43.0388 40.1236 -37.5292C58.2707 -32.0197 72.6383 -15.9701 86.2248 0.23429C99.9842 16.5385 112.996 33.1384 118.43 53.4805C123.949 73.8725 121.89 98.0067 112.485 120.687C103.027 143.457 86.0698 164.442 65.1689 172.488Z" fill="#A99CEE"/>
<path opacity="0.1" d="M57.8028 155.597C40.298 162.453 19.3502 158.134 -0.118377 152.75C-19.7027 147.4 -37.8363 140.868 -51.7491 128.191C-65.6336 115.631 -75.0659 96.8578 -74.7594 78.3554C-74.4091 59.7773 -64.1168 41.285 -52.509 25.6725C-40.8291 10.1016 -27.8183 -2.78238 -12.1407 -11.2996C3.49309 -19.7411 21.809 -24.0089 36.9317 -19.4176C52.0543 -14.8263 64.0273 -1.45169 75.3493 12.052C86.8155 25.6389 97.6591 39.4721 102.187 56.4238C106.787 73.4171 105.07 93.529 97.2329 112.429C89.3516 131.404 75.2202 148.892 57.8028 155.597Z" fill="#A99CEE"/>
<path opacity="0.1" d="M47.6636 141.521C33.0762 147.235 15.6197 143.635 -0.604087 139.148C-16.9244 134.69 -32.0356 129.247 -43.6297 118.683C-55.2001 108.216 -63.0603 92.5717 -62.8049 77.1531C-62.513 61.6714 -53.9361 46.2611 -44.2629 33.2507C-34.5297 20.275 -23.6873 9.53828 -10.6227 2.44058C2.40548 -4.59402 17.6688 -8.15051 30.271 -4.32443C42.8731 -0.498353 52.8506 10.6472 62.2857 21.9002C71.8408 33.2226 80.8771 44.7503 84.6502 58.8768C88.4833 73.0379 87.0532 89.7977 80.5219 105.548C73.9542 121.361 62.178 135.934 47.6636 141.521Z" fill="#A99CEE"/>
<path opacity="0.1" d="M40.5477 129.791C28.3916 134.553 13.8446 131.553 0.324705 127.814C-13.2756 124.099 -25.8683 119.563 -35.53 110.759C-45.172 102.037 -51.7222 89.0001 -51.5093 76.1512C-51.2661 63.2498 -44.1187 50.4079 -36.0577 39.5659C-27.9466 28.7528 -18.9114 19.8056 -8.02417 13.8908C2.83266 8.02864 15.5521 5.06491 26.0539 8.2533C36.5557 11.4417 44.8703 20.7296 52.7328 30.1072C60.6955 39.5425 68.2257 49.1489 71.3699 60.921C74.5642 72.7219 73.3725 86.6884 67.9297 99.8134C62.4566 112.991 52.6431 125.135 40.5477 129.791Z" fill="#A99CEE"/>
<mask id="mask1_3326_89618" style="mask-type:alpha" maskUnits="userSpaceOnUse" x="-57" y="17" width="125" height="125">
<path d="M35.1844 138.832C23.1287 143.554 8.70177 140.579 -4.70642 136.871C-18.1943 133.186 -30.6831 128.688 -40.265 119.957C-49.8273 111.307 -56.3234 98.3775 -56.1123 85.6347C-55.8711 72.8398 -48.7827 60.104 -40.7883 49.3515C-32.7443 38.6277 -23.7836 29.7543 -12.9863 23.8884C-2.21917 18.0747 10.3952 15.1354 20.8103 18.2975C31.2254 21.4596 39.4713 30.6708 47.2689 39.9709C55.1657 49.3283 62.6338 58.8554 65.752 70.5302C68.9199 82.2337 67.738 96.0849 62.3402 109.101C56.9123 122.17 47.1799 134.214 35.1844 138.832Z" fill="#0E58BE"/>
</mask>
<g mask="url(#mask1_3326_89618)">
<path d="M34.7692 124.963C23.9752 129.191 11.0582 126.528 -0.946768 123.208C-13.0231 119.909 -24.2048 115.881 -32.7839 108.064C-41.3455 100.319 -47.1617 88.7428 -46.9727 77.3337C-46.7567 65.8779 -40.4102 54.4749 -33.2524 44.8478C-26.0503 35.2463 -18.0274 27.3016 -8.36013 22.0496C1.28018 16.8443 12.5744 14.2126 21.8994 17.0438C31.2245 19.8749 38.6074 28.1221 45.589 36.4489C52.6593 44.827 59.3458 53.357 62.1377 63.81C64.9741 74.2886 63.9159 86.6902 59.083 98.3445C54.2232 110.045 45.5093 120.829 34.7692 124.963Z" fill="#322284"/>
<path opacity="0.3" d="M28.2906 52.3883C24.8124 51.4199 12.7507 66.0736 3.45968 72.679C3.45968 72.679 -0.511337 76.3714 -11.2823 71.4054C-25.762 64.7295 -30.7976 68.1838 -44.4715 77.9311C-58.1453 87.6784 -46.6879 103.584 -32.3834 104.734C-18.079 105.885 -25.3104 116.574 -11.3533 117.779C2.60378 118.984 25.8691 123.53 23.3529 109.559C23.3529 109.559 22.8982 102.554 20.3976 100.304C17.897 98.0532 17.7239 93.0651 19.8177 88.1244C21.9116 83.1837 33.7223 59.0904 33.0483 56.5836C32.4968 54.5324 28.2906 52.3883 28.2906 52.3883Z" fill="white"/>
</g>
<path d="M44.5277 43.608C44.5277 43.608 45.0883 44.211 42.3424 43.9245C40.8094 43.7634 38.842 43.9288 36.7262 43.2162C30.8525 41.2404 23.3551 49.5268 18.9522 55.5777C15.0059 61.0013 3.98995 58.9257 -3.46049 51.2098C-3.46049 51.2098 4.17861 52.9346 6.75965 46.0323C9.34069 39.13 12.3345 39.7921 15.4191 39.3899C18.5036 38.9877 10.1341 34.44 6.78365 36.7461C6.78365 36.7461 11.2192 26.1481 17.4692 28.1453C23.7192 30.1425 41.4041 40.0295 44.1407 42.2529C45.6161 42.5675 44.5295 43.6093 44.5295 43.6093L44.5277 43.608Z" fill="#E2222E"/>
<path d="M31.2819 39.6591C31.2819 39.6591 20.1085 39.0664 17.4163 40.2323C17.4163 40.2323 20.5836 37.7375 17.9015 35.1264C17.9015 35.1264 20.8179 38.3059 24.9051 37.7683C28.2993 37.3221 31.2819 39.6591 31.2819 39.6591Z" fill="#F19097"/>
<path d="M-0.202821 52.3573C-0.202821 52.3573 5.85951 57.0311 12.4761 55.0828C14.8119 54.3945 14.2689 51.9554 16.3363 49.1353C18.5147 46.1623 23.2695 42.7968 24.4492 41.7746C24.4492 41.7746 11.3555 50.9052 7.52485 47.5222C7.52485 47.5222 6.10148 51.9568 -0.204617 52.356L-0.202821 52.3573Z" fill="#F19097"/>
<path d="M20.106 73.5687L18.6309 77.0621L19.2178 78.487L22.6409 75.6838L20.1046 73.5705L20.106 73.5687Z" fill="#F2A35F"/>
<path d="M19.7692 77.7575C19.5919 77.4645 19.3371 76.763 19.8007 75.4826C19.8851 75.2494 19.7277 74.9974 19.4811 74.9664C18.625 74.8617 16.9524 74.7084 16.7811 75.0814C16.5647 75.5544 16.3025 81.7011 16.271 82.4758C16.2685 82.5311 16.2774 82.5866 16.3003 82.6384C16.411 82.892 16.7842 83.5838 17.3004 82.6442C17.4853 82.3017 19.2872 79.021 19.7737 78.1388C19.8404 78.018 19.8408 77.8723 19.7674 77.7561L19.7692 77.7575Z" fill="#322284"/>
<path d="M17.623 79.2775C17.6613 79.2237 17.7101 79.2381 17.7366 79.2555C18.3232 79.7612 18.8099 79.8354 18.8099 79.8354C18.8461 79.8402 18.8774 79.8812 18.871 79.9193C18.866 79.9556 18.8249 79.9871 18.7887 79.9824C18.7651 79.9872 18.2658 79.9033 17.6493 79.3548C17.6131 79.3501 17.6055 79.3042 17.623 79.2775Z" fill="white"/>
<path d="M17.374 79.7518C17.3804 79.7434 17.3804 79.7434 17.374 79.7518C17.4123 79.6981 17.461 79.7124 17.4894 79.7312C18.076 80.2369 18.5627 80.3111 18.5627 80.3111C18.5989 80.3159 18.6301 80.357 18.6238 80.395C18.6188 80.4313 18.5777 80.4628 18.5415 80.4581C18.5178 80.4629 18.0185 80.3791 17.4021 79.8305C17.3659 79.8258 17.3583 79.7799 17.3772 79.7514L17.374 79.7518Z" fill="white"/>
<path d="M14.036 68.8344L10.1792 71.5723L9.43702 70.3952L11.2421 67.1141L14.036 68.8344Z" fill="#F2A35F"/>
<path d="M7.97755 76.0161C7.35629 77.1416 6.94404 75.9276 6.94404 75.9276C6.94404 75.9276 7.22072 68.9503 7.45206 68.4428C7.6834 67.9354 10.6529 68.3986 10.6529 68.3986C9.70748 70.5103 10.5637 71.285 10.5637 71.285C10.5637 71.285 8.18045 75.6129 7.97935 76.0175L7.97755 76.0161Z" fill="#322284"/>
<path d="M8.32744 72.7252C8.94393 73.2737 9.44322 73.3576 9.46684 73.3527C9.50304 73.3575 9.5442 73.326 9.54917 73.2897C9.55414 73.2534 9.52429 73.2106 9.48809 73.2058C9.48809 73.2058 9.00138 73.1315 8.41612 72.6241C8.39097 72.6049 8.33902 72.5909 8.30256 72.6461C8.28184 72.6732 8.29262 72.7186 8.32744 72.7252Z" fill="white"/>
<path d="M8.06474 73.188C8.68123 73.7365 9.18052 73.8204 9.20414 73.8155C9.24034 73.8203 9.2815 73.7888 9.28647 73.7525C9.29144 73.7162 9.2616 73.6734 9.2254 73.6686C9.2254 73.6686 8.73869 73.5943 8.15342 73.0869C8.12827 73.0677 8.07633 73.0537 8.03986 73.1089C8.01914 73.136 8.02992 73.1814 8.06474 73.188Z" fill="white"/>
<path d="M28.3189 49.4586L10.0543 67.2195L13.9314 69.8308C13.9314 69.8308 26.4554 56.3081 28.8496 58.1381C31.2439 59.9681 19.4133 74.121 19.4133 74.121L23.504 76.6837L37.4558 56.4422L28.3189 49.4586Z" fill="#F4E9FE"/>
<path d="M24.9066 44.7941C24.9066 44.7941 23.6967 45.238 23.3531 45.3555C23.0104 45.4709 21.733 45.6439 21.5969 45.7677C21.499 45.8578 21.4531 46.0775 21.8849 46.3057C22.3167 46.5339 23.4482 46.9623 24.8518 46.3372C26.2576 45.7129 26.834 45.3368 26.834 45.3368L25.337 44.3091C25.3467 44.345 25.1709 44.6196 24.9057 44.7962L24.9066 44.7941Z" fill="#F2A35F"/>
<path d="M56.523 36.6068C56.523 36.6068 57.0158 36.4051 57.047 36.2228C57.08 36.0419 57.4675 34.6861 57.5505 34.678C57.7179 34.66 57.7645 35.042 57.6273 35.3408C57.5358 35.5572 57.519 35.7877 57.7933 35.5479C58.0677 35.3081 58.8434 34.2634 59.0422 34.2378C59.1252 34.2297 59.3812 34.2708 59.3545 34.76C59.3277 35.2491 59.1185 36.4462 57.8646 37.3458C56.6121 38.2437 55.9961 38.5545 55.9961 38.5545L55.8816 36.7349C55.9062 36.7623 56.2309 36.747 56.5185 36.609L56.523 36.6068Z" fill="#F2A35F"/>
<path d="M56.9491 38.2236L56.0422 36.3538L42.9479 42.2203C42.7647 42.0803 42.5014 42.0451 42.2828 42.1672C41.7329 42.4511 40.9979 42.4076 40.4103 41.9813C39.9157 41.6233 39.6431 41.0828 39.6308 40.5553C39.6228 40.3201 39.4893 40.115 39.2854 40.0021C33.809 35.8163 24.5597 44.8164 24.5597 44.8164L25.5724 46.4808C25.5724 46.4808 33.963 40.8267 33.9593 42.2983C33.9605 44.415 28.312 49.4709 28.312 49.4709C30.5976 54.2239 37.4489 56.4545 37.4489 56.4545C37.4489 56.4545 42.586 46.1894 43.9454 45.7139C44.9979 45.316 56.9505 38.2218 56.9505 38.2218L56.9491 38.2236Z" fill="#87B6F6"/>
<path d="M42.4967 40.719L41.4042 40.03C41.3961 40.0667 39.3816 40.6399 39.3816 40.6399L39.833 43.1206L42.2422 42.6602L42.4985 40.7204L42.4967 40.719Z" fill="#F2A35F"/>
<path opacity="0.15" d="M42.4966 40.7191L41.4042 40.0301C41.4071 40.0524 41.2999 41.0898 42.3275 42.0013L42.4966 40.7191Z" fill="#252B2F"/>
<path d="M41.801 40.4334C42.7382 41.1097 44.1973 40.6675 45.0473 39.4734C45.9084 38.265 45.846 36.7458 44.8992 36.0822C43.9607 35.4078 42.503 35.8482 41.6515 37.044C40.8001 38.2398 40.8625 39.759 41.801 40.4334Z" fill="#F2A35F"/>
<path d="M41.1955 37.8574C41.3787 37.9975 41.6472 37.9737 41.753 37.8055C41.8732 37.6483 41.8146 37.3973 41.6188 37.2477C41.4356 37.1077 41.1671 37.1314 41.0613 37.2996C40.944 37.4791 41.0012 37.7319 41.1955 37.8574Z" fill="#F2A35F"/>
<path d="M44.4499 40.1995C44.6331 40.3396 44.9016 40.3158 45.0074 40.1476C45.1276 39.9904 45.069 39.7394 44.8732 39.5898C44.69 39.4498 44.4214 39.4735 44.3156 39.6417C44.1955 39.799 44.2541 40.0499 44.4499 40.1995Z" fill="#F2A35F"/>
<path d="M41.495 37.1933C41.6809 36.7341 42.174 35.6795 42.8844 35.6213C42.8844 35.6213 42.8022 35.1033 43.3043 35.0719C43.3043 35.0719 43.3543 34.4889 43.8828 34.5607C44.3269 34.6311 44.2654 35.0393 44.2654 35.0393C44.2654 35.0393 44.4232 34.7248 44.7656 34.8204C45.0588 34.8984 45.049 35.183 44.9283 35.4228C44.9283 35.4228 45.527 34.9671 46.1383 35.4144C46.7515 35.863 46.8005 37.0199 46.3633 37.3499C46.3633 37.3499 46.5214 37.4707 46.3539 37.7979C46.2361 38.06 46.0518 38.0852 46.0518 38.0852C46.0518 38.0852 45.9244 39.0671 45.0231 39.6208C44.9561 39.6526 44.8692 39.6062 44.8824 39.5332C44.9424 39.101 45.1166 38.0318 45.2326 37.5822C45.2326 37.5822 44.4248 37.5259 44.5684 36.9285C44.5684 36.9285 43.9371 37.0472 43.9123 36.5101C43.9123 36.5101 43.2132 36.1217 41.6139 37.2612C41.5516 37.3166 41.4851 37.2658 41.5 37.1942L41.495 37.1933Z" fill="#FFD561"/>
</g>
</g>
<defs>
<linearGradient id="paint0_linear_3326_89618" x1="-122.439" y1="211.349" x2="24.5136" y2="-132.188" gradientUnits="userSpaceOnUse">
<stop stop-color="#7660E3"/>
<stop offset="0.493327" stop-color="#5438DC"/>
<stop offset="1" stop-color="#116EEE"/>
</linearGradient>
<clipPath id="clip0_3326_89618">
<rect width="182" height="114" fill="white"/>
</clipPath>
</defs>
</svg>
